%FSLAX45Y45*%
G04 Gerber Fmt 4.5, Leading zero omitted, Abs format (unit mm)*
G04 Created by KiCad (PCBNEW 6.0.1-79c1e3a40b~116~ubuntu21.04.1) date 2022-04-23 17:06:45*
%MOMM*%
%LPD*%
G01*
G04 APERTURE LIST*
%TA.AperFunction,Profile*%
%ADD10C,0.100000*%
%TD*%
%ADD11C,0.200000*%
%ADD12C,0.040000*%
%ADD13C,0.075000*%
%ADD14C,0.080000*%
%ADD15C,0.100000*%
%ADD16C,0.320000*%
G04 APERTURE END LIST*
D10*
X20025000Y-13037500D02*
X9875000Y-13037500D01*
X9875000Y-13037500D02*
X9875000Y-6875000D01*
X9875000Y-6875000D02*
X20025000Y-6875000D01*
X20025000Y-6875000D02*
X20025000Y-13037500D01*
D11*
D12*
X15017500Y-9692500D02*
X15057500Y-9732500D01*
X15057500Y-9692500D02*
X15017500Y-9732500D01*
X15017500Y-9842500D02*
X15057500Y-9882500D01*
X15057500Y-9842500D02*
X15017500Y-9882500D01*
X15067500Y-8042500D02*
X15107500Y-8082500D01*
X15107500Y-8042500D02*
X15067500Y-8082500D01*
X15067500Y-8228902D02*
X15107500Y-8268902D01*
X15107500Y-8228902D02*
X15067500Y-8268902D01*
X15092500Y-11192500D02*
X15132500Y-11232500D01*
X15132500Y-11192500D02*
X15092500Y-11232500D01*
X15092500Y-11342500D02*
X15132500Y-11382500D01*
X15132500Y-11342500D02*
X15092500Y-11382500D01*
X15420050Y-9942500D02*
X15460050Y-9982500D01*
X15460050Y-9942500D02*
X15420050Y-9982500D01*
X15437000Y-8340098D02*
X15477000Y-8380098D01*
X15477000Y-8340098D02*
X15437000Y-8380098D01*
X15442500Y-11442500D02*
X15482500Y-11482500D01*
X15482500Y-11442500D02*
X15442500Y-11482500D01*
X15617500Y-9592500D02*
X15657500Y-9632500D01*
X15657500Y-9592500D02*
X15617500Y-9632500D01*
X15617500Y-11084998D02*
X15657500Y-11124998D01*
X15657500Y-11084998D02*
X15617500Y-11124998D01*
X15642500Y-7974902D02*
X15682500Y-8014902D01*
X15682500Y-7974902D02*
X15642500Y-8014902D01*
D13*
X16423000Y-8023500D02*
G75*
G03*
X16423000Y-8023500I-37500J0D01*
G01*
X16423000Y-9556500D02*
G75*
G03*
X16423000Y-9556500I-37500J0D01*
G01*
X16423000Y-11131500D02*
G75*
G03*
X16423000Y-11131500I-37500J0D01*
G01*
X16550000Y-8023500D02*
G75*
G03*
X16550000Y-8023500I-37500J0D01*
G01*
X16550000Y-9556500D02*
G75*
G03*
X16550000Y-9556500I-37500J0D01*
G01*
X16550000Y-11131500D02*
G75*
G03*
X16550000Y-11131500I-37500J0D01*
G01*
X16677000Y-8023500D02*
G75*
G03*
X16677000Y-8023500I-37500J0D01*
G01*
X16677000Y-9556500D02*
G75*
G03*
X16677000Y-9556500I-37500J0D01*
G01*
X16677000Y-11131500D02*
G75*
G03*
X16677000Y-11131500I-37500J0D01*
G01*
D14*
X11454500Y-9347500D02*
X11454500Y-9427500D01*
X11414500Y-9387500D02*
X11494500Y-9387500D01*
X11454500Y-9822500D02*
X11454500Y-9902500D01*
X11414500Y-9862500D02*
X11494500Y-9862500D01*
X11454500Y-10297500D02*
X11454500Y-10377500D01*
X11414500Y-10337500D02*
X11494500Y-10337500D01*
X11454500Y-10797500D02*
X11454500Y-10877500D01*
X11414500Y-10837500D02*
X11494500Y-10837500D01*
X11454500Y-11272500D02*
X11454500Y-11352500D01*
X11414500Y-11312500D02*
X11494500Y-11312500D01*
X11454500Y-11747500D02*
X11454500Y-11827500D01*
X11414500Y-11787500D02*
X11494500Y-11787500D01*
X11469500Y-7839500D02*
X11469500Y-7919500D01*
X11429500Y-7879500D02*
X11509500Y-7879500D01*
X11469500Y-8314500D02*
X11469500Y-8394500D01*
X11429500Y-8354500D02*
X11509500Y-8354500D01*
X11469500Y-8789500D02*
X11469500Y-8869500D01*
X11429500Y-8829500D02*
X11509500Y-8829500D01*
X12470500Y-9347500D02*
X12470500Y-9427500D01*
X12430500Y-9387500D02*
X12510500Y-9387500D01*
X12470500Y-9822500D02*
X12470500Y-9902500D01*
X12430500Y-9862500D02*
X12510500Y-9862500D01*
X12470500Y-10297500D02*
X12470500Y-10377500D01*
X12430500Y-10337500D02*
X12510500Y-10337500D01*
X12470500Y-10797500D02*
X12470500Y-10877500D01*
X12430500Y-10837500D02*
X12510500Y-10837500D01*
X12470500Y-11272500D02*
X12470500Y-11352500D01*
X12430500Y-11312500D02*
X12510500Y-11312500D01*
X12470500Y-11747500D02*
X12470500Y-11827500D01*
X12430500Y-11787500D02*
X12510500Y-11787500D01*
X12485500Y-7839500D02*
X12485500Y-7919500D01*
X12445500Y-7879500D02*
X12525500Y-7879500D01*
X12485500Y-8314500D02*
X12485500Y-8394500D01*
X12445500Y-8354500D02*
X12525500Y-8354500D01*
X12485500Y-8789500D02*
X12485500Y-8869500D01*
X12445500Y-8829500D02*
X12525500Y-8829500D01*
X13044500Y-7839500D02*
X13044500Y-7919500D01*
X13004500Y-7879500D02*
X13084500Y-7879500D01*
X13044500Y-8314500D02*
X13044500Y-8394500D01*
X13004500Y-8354500D02*
X13084500Y-8354500D01*
X13044500Y-8789500D02*
X13044500Y-8869500D01*
X13004500Y-8829500D02*
X13084500Y-8829500D01*
X13044500Y-9347500D02*
X13044500Y-9427500D01*
X13004500Y-9387500D02*
X13084500Y-9387500D01*
X13044500Y-9822500D02*
X13044500Y-9902500D01*
X13004500Y-9862500D02*
X13084500Y-9862500D01*
X13044500Y-10297500D02*
X13044500Y-10377500D01*
X13004500Y-10337500D02*
X13084500Y-10337500D01*
X13044500Y-10797500D02*
X13044500Y-10877500D01*
X13004500Y-10837500D02*
X13084500Y-10837500D01*
X13044500Y-11272500D02*
X13044500Y-11352500D01*
X13004500Y-11312500D02*
X13084500Y-11312500D01*
X13044500Y-11747500D02*
X13044500Y-11827500D01*
X13004500Y-11787500D02*
X13084500Y-11787500D01*
X14060500Y-7839500D02*
X14060500Y-7919500D01*
X14020500Y-7879500D02*
X14100500Y-7879500D01*
X14060500Y-8314500D02*
X14060500Y-8394500D01*
X14020500Y-8354500D02*
X14100500Y-8354500D01*
X14060500Y-8789500D02*
X14060500Y-8869500D01*
X14020500Y-8829500D02*
X14100500Y-8829500D01*
X14060500Y-9347500D02*
X14060500Y-9427500D01*
X14020500Y-9387500D02*
X14100500Y-9387500D01*
X14060500Y-9822500D02*
X14060500Y-9902500D01*
X14020500Y-9862500D02*
X14100500Y-9862500D01*
X14060500Y-10297500D02*
X14060500Y-10377500D01*
X14020500Y-10337500D02*
X14100500Y-10337500D01*
X14060500Y-10797500D02*
X14060500Y-10877500D01*
X14020500Y-10837500D02*
X14100500Y-10837500D01*
X14060500Y-11272500D02*
X14060500Y-11352500D01*
X14020500Y-11312500D02*
X14100500Y-11312500D01*
X14060500Y-11747500D02*
X14060500Y-11827500D01*
X14020500Y-11787500D02*
X14100500Y-11787500D01*
X14556989Y-7897500D02*
X14556989Y-7977500D01*
X14516989Y-7937500D02*
X14596989Y-7937500D01*
X14556989Y-8672500D02*
X14556989Y-8752500D01*
X14516989Y-8712500D02*
X14596989Y-8712500D01*
X14556989Y-9497500D02*
X14556989Y-9577500D01*
X14516989Y-9537500D02*
X14596989Y-9537500D01*
X14556989Y-10247500D02*
X14556989Y-10327500D01*
X14516989Y-10287500D02*
X14596989Y-10287500D01*
X14556989Y-10997500D02*
X14556989Y-11077500D01*
X14516989Y-11037500D02*
X14596989Y-11037500D01*
X14556989Y-11747500D02*
X14556989Y-11827500D01*
X14516989Y-11787500D02*
X14596989Y-11787500D01*
X14806989Y-7897500D02*
X14806989Y-7977500D01*
X14766989Y-7937500D02*
X14846989Y-7937500D01*
X14806989Y-8672500D02*
X14806989Y-8752500D01*
X14766989Y-8712500D02*
X14846989Y-8712500D01*
X14806989Y-9497500D02*
X14806989Y-9577500D01*
X14766989Y-9537500D02*
X14846989Y-9537500D01*
X14806989Y-10247500D02*
X14806989Y-10327500D01*
X14766989Y-10287500D02*
X14846989Y-10287500D01*
X14806989Y-10997500D02*
X14806989Y-11077500D01*
X14766989Y-11037500D02*
X14846989Y-11037500D01*
X14806989Y-11747500D02*
X14806989Y-11827500D01*
X14766989Y-11787500D02*
X14846989Y-11787500D01*
X16391989Y-8697500D02*
X16391989Y-8777500D01*
X16351989Y-8737500D02*
X16431989Y-8737500D01*
X16391989Y-10180500D02*
X16391989Y-10260500D01*
X16351989Y-10220500D02*
X16431989Y-10220500D01*
X16391989Y-11755500D02*
X16391989Y-11835500D01*
X16351989Y-11795500D02*
X16431989Y-11795500D01*
X16641989Y-8697500D02*
X16641989Y-8777500D01*
X16601989Y-8737500D02*
X16681989Y-8737500D01*
X16641989Y-10180500D02*
X16641989Y-10260500D01*
X16601989Y-10220500D02*
X16681989Y-10220500D01*
X16641989Y-11755500D02*
X16641989Y-11835500D01*
X16601989Y-11795500D02*
X16681989Y-11795500D01*
X17166989Y-7872500D02*
X17166989Y-7952500D01*
X17126989Y-7912500D02*
X17206989Y-7912500D01*
X17166989Y-8664500D02*
X17166989Y-8744500D01*
X17126989Y-8704500D02*
X17206989Y-8704500D01*
X17166989Y-9497500D02*
X17166989Y-9577500D01*
X17126989Y-9537500D02*
X17206989Y-9537500D01*
X17166989Y-10247500D02*
X17166989Y-10327500D01*
X17126989Y-10287500D02*
X17206989Y-10287500D01*
X17166989Y-11047500D02*
X17166989Y-11127500D01*
X17126989Y-11087500D02*
X17206989Y-11087500D01*
X17166989Y-11772500D02*
X17166989Y-11852500D01*
X17126989Y-11812500D02*
X17206989Y-11812500D01*
X17416989Y-7872500D02*
X17416989Y-7952500D01*
X17376989Y-7912500D02*
X17456989Y-7912500D01*
X17416989Y-8664500D02*
X17416989Y-8744500D01*
X17376989Y-8704500D02*
X17456989Y-8704500D01*
X17416989Y-9497500D02*
X17416989Y-9577500D01*
X17376989Y-9537500D02*
X17456989Y-9537500D01*
X17416989Y-10247500D02*
X17416989Y-10327500D01*
X17376989Y-10287500D02*
X17456989Y-10287500D01*
X17416989Y-11047500D02*
X17416989Y-11127500D01*
X17376989Y-11087500D02*
X17456989Y-11087500D01*
X17416989Y-11772500D02*
X17416989Y-11852500D01*
X17376989Y-11812500D02*
X17456989Y-11812500D01*
D15*
X10292856Y-8067856D02*
X10292856Y-7997144D01*
X10222144Y-7997144D01*
X10222144Y-8067856D01*
X10292856Y-8067856D01*
X10292856Y-8321856D02*
X10292856Y-8251144D01*
X10222144Y-8251144D01*
X10222144Y-8321856D01*
X10292856Y-8321856D01*
X10292856Y-8575856D02*
X10292856Y-8505144D01*
X10222144Y-8505144D01*
X10222144Y-8575856D01*
X10292856Y-8575856D01*
X10292856Y-8829856D02*
X10292856Y-8759144D01*
X10222144Y-8759144D01*
X10222144Y-8829856D01*
X10292856Y-8829856D01*
X10292856Y-9567856D02*
X10292856Y-9497144D01*
X10222144Y-9497144D01*
X10222144Y-9567856D01*
X10292856Y-9567856D01*
X10292856Y-9821856D02*
X10292856Y-9751144D01*
X10222144Y-9751144D01*
X10222144Y-9821856D01*
X10292856Y-9821856D01*
X10292856Y-10075856D02*
X10292856Y-10005144D01*
X10222144Y-10005144D01*
X10222144Y-10075856D01*
X10292856Y-10075856D01*
X10292856Y-10329856D02*
X10292856Y-10259144D01*
X10222144Y-10259144D01*
X10222144Y-10329856D01*
X10292856Y-10329856D01*
X10292856Y-10967856D02*
X10292856Y-10897144D01*
X10222144Y-10897144D01*
X10222144Y-10967856D01*
X10292856Y-10967856D01*
X10292856Y-11221856D02*
X10292856Y-11151144D01*
X10222144Y-11151144D01*
X10222144Y-11221856D01*
X10292856Y-11221856D01*
X10292856Y-11475856D02*
X10292856Y-11405144D01*
X10222144Y-11405144D01*
X10222144Y-11475856D01*
X10292856Y-11475856D01*
X10292856Y-11729856D02*
X10292856Y-11659144D01*
X10222144Y-11659144D01*
X10222144Y-11729856D01*
X10292856Y-11729856D01*
X10922856Y-8067856D02*
X10922856Y-7997144D01*
X10852144Y-7997144D01*
X10852144Y-8067856D01*
X10922856Y-8067856D01*
X10922856Y-8321856D02*
X10922856Y-8251144D01*
X10852144Y-8251144D01*
X10852144Y-8321856D01*
X10922856Y-8321856D01*
X10922856Y-8575856D02*
X10922856Y-8505144D01*
X10852144Y-8505144D01*
X10852144Y-8575856D01*
X10922856Y-8575856D01*
X10922856Y-8829856D02*
X10922856Y-8759144D01*
X10852144Y-8759144D01*
X10852144Y-8829856D01*
X10922856Y-8829856D01*
X10922856Y-9567856D02*
X10922856Y-9497144D01*
X10852144Y-9497144D01*
X10852144Y-9567856D01*
X10922856Y-9567856D01*
X10922856Y-9821856D02*
X10922856Y-9751144D01*
X10852144Y-9751144D01*
X10852144Y-9821856D01*
X10922856Y-9821856D01*
X10922856Y-10075856D02*
X10922856Y-10005144D01*
X10852144Y-10005144D01*
X10852144Y-10075856D01*
X10922856Y-10075856D01*
X10922856Y-10329856D02*
X10922856Y-10259144D01*
X10852144Y-10259144D01*
X10852144Y-10329856D01*
X10922856Y-10329856D01*
X10922856Y-10967856D02*
X10922856Y-10897144D01*
X10852144Y-10897144D01*
X10852144Y-10967856D01*
X10922856Y-10967856D01*
X10922856Y-11221856D02*
X10922856Y-11151144D01*
X10852144Y-11151144D01*
X10852144Y-11221856D01*
X10922856Y-11221856D01*
X10922856Y-11475856D02*
X10922856Y-11405144D01*
X10852144Y-11405144D01*
X10852144Y-11475856D01*
X10922856Y-11475856D01*
X10922856Y-11729856D02*
X10922856Y-11659144D01*
X10852144Y-11659144D01*
X10852144Y-11729856D01*
X10922856Y-11729856D01*
X18174356Y-8122856D02*
X18174356Y-8052144D01*
X18103644Y-8052144D01*
X18103644Y-8122856D01*
X18174356Y-8122856D01*
X18174356Y-8376856D02*
X18174356Y-8306144D01*
X18103644Y-8306144D01*
X18103644Y-8376856D01*
X18174356Y-8376856D01*
X18174356Y-8630856D02*
X18174356Y-8560144D01*
X18103644Y-8560144D01*
X18103644Y-8630856D01*
X18174356Y-8630856D01*
X18174356Y-8884856D02*
X18174356Y-8814144D01*
X18103644Y-8814144D01*
X18103644Y-8884856D01*
X18174356Y-8884856D01*
X18174356Y-9138856D02*
X18174356Y-9068144D01*
X18103644Y-9068144D01*
X18103644Y-9138856D01*
X18174356Y-9138856D01*
X18174356Y-9392856D02*
X18174356Y-9322144D01*
X18103644Y-9322144D01*
X18103644Y-9392856D01*
X18174356Y-9392856D01*
X18174356Y-9646856D02*
X18174356Y-9576144D01*
X18103644Y-9576144D01*
X18103644Y-9646856D01*
X18174356Y-9646856D01*
X18174356Y-9900856D02*
X18174356Y-9830144D01*
X18103644Y-9830144D01*
X18103644Y-9900856D01*
X18174356Y-9900856D01*
X18174356Y-10154856D02*
X18174356Y-10084144D01*
X18103644Y-10084144D01*
X18103644Y-10154856D01*
X18174356Y-10154856D01*
X18174356Y-10408856D02*
X18174356Y-10338144D01*
X18103644Y-10338144D01*
X18103644Y-10408856D01*
X18174356Y-10408856D01*
X18174356Y-10662856D02*
X18174356Y-10592144D01*
X18103644Y-10592144D01*
X18103644Y-10662856D01*
X18174356Y-10662856D01*
X18174356Y-10916856D02*
X18174356Y-10846144D01*
X18103644Y-10846144D01*
X18103644Y-10916856D01*
X18174356Y-10916856D01*
X18174356Y-11170856D02*
X18174356Y-11100144D01*
X18103644Y-11100144D01*
X18103644Y-11170856D01*
X18174356Y-11170856D01*
X18174356Y-11424856D02*
X18174356Y-11354144D01*
X18103644Y-11354144D01*
X18103644Y-11424856D01*
X18174356Y-11424856D01*
X18174356Y-11678856D02*
X18174356Y-11608144D01*
X18103644Y-11608144D01*
X18103644Y-11678856D01*
X18174356Y-11678856D01*
X19698356Y-8122856D02*
X19698356Y-8052144D01*
X19627644Y-8052144D01*
X19627644Y-8122856D01*
X19698356Y-8122856D01*
X19698356Y-8376856D02*
X19698356Y-8306144D01*
X19627644Y-8306144D01*
X19627644Y-8376856D01*
X19698356Y-8376856D01*
X19698356Y-8630856D02*
X19698356Y-8560144D01*
X19627644Y-8560144D01*
X19627644Y-8630856D01*
X19698356Y-8630856D01*
X19698356Y-8884856D02*
X19698356Y-8814144D01*
X19627644Y-8814144D01*
X19627644Y-8884856D01*
X19698356Y-8884856D01*
X19698356Y-9138856D02*
X19698356Y-9068144D01*
X19627644Y-9068144D01*
X19627644Y-9138856D01*
X19698356Y-9138856D01*
X19698356Y-9392856D02*
X19698356Y-9322144D01*
X19627644Y-9322144D01*
X19627644Y-9392856D01*
X19698356Y-9392856D01*
X19698356Y-9646856D02*
X19698356Y-9576144D01*
X19627644Y-9576144D01*
X19627644Y-9646856D01*
X19698356Y-9646856D01*
X19698356Y-9900856D02*
X19698356Y-9830144D01*
X19627644Y-9830144D01*
X19627644Y-9900856D01*
X19698356Y-9900856D01*
X19698356Y-10154856D02*
X19698356Y-10084144D01*
X19627644Y-10084144D01*
X19627644Y-10154856D01*
X19698356Y-10154856D01*
X19698356Y-10408856D02*
X19698356Y-10338144D01*
X19627644Y-10338144D01*
X19627644Y-10408856D01*
X19698356Y-10408856D01*
X19698356Y-10662856D02*
X19698356Y-10592144D01*
X19627644Y-10592144D01*
X19627644Y-10662856D01*
X19698356Y-10662856D01*
X19698356Y-10916856D02*
X19698356Y-10846144D01*
X19627644Y-10846144D01*
X19627644Y-10916856D01*
X19698356Y-10916856D01*
X19698356Y-11170856D02*
X19698356Y-11100144D01*
X19627644Y-11100144D01*
X19627644Y-11170856D01*
X19698356Y-11170856D01*
X19698356Y-11424856D02*
X19698356Y-11354144D01*
X19627644Y-11354144D01*
X19627644Y-11424856D01*
X19698356Y-11424856D01*
X19698356Y-11678856D02*
X19698356Y-11608144D01*
X19627644Y-11608144D01*
X19627644Y-11678856D01*
X19698356Y-11678856D01*
D16*
X10200000Y-7360000D02*
X10360000Y-7200000D01*
X10200000Y-7040000D01*
X10040000Y-7200000D01*
X10200000Y-7360000D01*
X10200000Y-12860000D02*
X10360000Y-12700000D01*
X10200000Y-12540000D01*
X10040000Y-12700000D01*
X10200000Y-12860000D01*
X19700000Y-7360000D02*
X19860000Y-7200000D01*
X19700000Y-7040000D01*
X19540000Y-7200000D01*
X19700000Y-7360000D01*
X19700000Y-12860000D02*
X19860000Y-12700000D01*
X19700000Y-12540000D01*
X19540000Y-12700000D01*
X19700000Y-12860000D01*
D11*
X10127619Y-13352976D02*
X10127619Y-13152976D01*
X10175238Y-13152976D01*
X10203810Y-13162500D01*
X10222857Y-13181548D01*
X10232381Y-13200595D01*
X10241905Y-13238690D01*
X10241905Y-13267262D01*
X10232381Y-13305357D01*
X10222857Y-13324405D01*
X10203810Y-13343452D01*
X10175238Y-13352976D01*
X10127619Y-13352976D01*
X10327619Y-13352976D02*
X10327619Y-13219643D01*
X10327619Y-13257738D02*
X10337143Y-13238690D01*
X10346667Y-13229167D01*
X10365714Y-13219643D01*
X10384762Y-13219643D01*
X10451429Y-13352976D02*
X10451429Y-13219643D01*
X10451429Y-13152976D02*
X10441905Y-13162500D01*
X10451429Y-13172024D01*
X10460952Y-13162500D01*
X10451429Y-13152976D01*
X10451429Y-13172024D01*
X10575238Y-13352976D02*
X10556190Y-13343452D01*
X10546667Y-13324405D01*
X10546667Y-13152976D01*
X10680000Y-13352976D02*
X10660952Y-13343452D01*
X10651429Y-13324405D01*
X10651429Y-13152976D01*
X10908571Y-13352976D02*
X10908571Y-13152976D01*
X10975238Y-13295833D01*
X11041905Y-13152976D01*
X11041905Y-13352976D01*
X11222857Y-13352976D02*
X11222857Y-13248214D01*
X11213333Y-13229167D01*
X11194286Y-13219643D01*
X11156190Y-13219643D01*
X11137143Y-13229167D01*
X11222857Y-13343452D02*
X11203809Y-13352976D01*
X11156190Y-13352976D01*
X11137143Y-13343452D01*
X11127619Y-13324405D01*
X11127619Y-13305357D01*
X11137143Y-13286309D01*
X11156190Y-13276786D01*
X11203809Y-13276786D01*
X11222857Y-13267262D01*
X11318095Y-13219643D02*
X11318095Y-13419643D01*
X11318095Y-13229167D02*
X11337143Y-13219643D01*
X11375238Y-13219643D01*
X11394286Y-13229167D01*
X11403809Y-13238690D01*
X11413333Y-13257738D01*
X11413333Y-13314881D01*
X11403809Y-13333928D01*
X11394286Y-13343452D01*
X11375238Y-13352976D01*
X11337143Y-13352976D01*
X11318095Y-13343452D01*
X11499048Y-13333928D02*
X11508571Y-13343452D01*
X11499048Y-13352976D01*
X11489524Y-13343452D01*
X11499048Y-13333928D01*
X11499048Y-13352976D01*
X11499048Y-13229167D02*
X11508571Y-13238690D01*
X11499048Y-13248214D01*
X11489524Y-13238690D01*
X11499048Y-13229167D01*
X11499048Y-13248214D01*
D12*
X9830000Y-13662500D02*
X9870000Y-13702500D01*
X9870000Y-13662500D02*
X9830000Y-13702500D01*
D11*
X10165714Y-13572976D02*
X10184762Y-13572976D01*
X10203810Y-13582500D01*
X10213333Y-13592024D01*
X10222857Y-13611071D01*
X10232381Y-13649167D01*
X10232381Y-13696786D01*
X10222857Y-13734881D01*
X10213333Y-13753928D01*
X10203810Y-13763452D01*
X10184762Y-13772976D01*
X10165714Y-13772976D01*
X10146667Y-13763452D01*
X10137143Y-13753928D01*
X10127619Y-13734881D01*
X10118095Y-13696786D01*
X10118095Y-13649167D01*
X10127619Y-13611071D01*
X10137143Y-13592024D01*
X10146667Y-13582500D01*
X10165714Y-13572976D01*
X10318095Y-13753928D02*
X10327619Y-13763452D01*
X10318095Y-13772976D01*
X10308571Y-13763452D01*
X10318095Y-13753928D01*
X10318095Y-13772976D01*
X10499048Y-13639643D02*
X10499048Y-13772976D01*
X10451429Y-13563452D02*
X10403810Y-13706309D01*
X10527619Y-13706309D01*
X10641905Y-13572976D02*
X10660952Y-13572976D01*
X10680000Y-13582500D01*
X10689524Y-13592024D01*
X10699048Y-13611071D01*
X10708571Y-13649167D01*
X10708571Y-13696786D01*
X10699048Y-13734881D01*
X10689524Y-13753928D01*
X10680000Y-13763452D01*
X10660952Y-13772976D01*
X10641905Y-13772976D01*
X10622857Y-13763452D01*
X10613333Y-13753928D01*
X10603810Y-13734881D01*
X10594286Y-13696786D01*
X10594286Y-13649167D01*
X10603810Y-13611071D01*
X10613333Y-13592024D01*
X10622857Y-13582500D01*
X10641905Y-13572976D01*
X10832381Y-13572976D02*
X10851429Y-13572976D01*
X10870476Y-13582500D01*
X10880000Y-13592024D01*
X10889524Y-13611071D01*
X10899048Y-13649167D01*
X10899048Y-13696786D01*
X10889524Y-13734881D01*
X10880000Y-13753928D01*
X10870476Y-13763452D01*
X10851429Y-13772976D01*
X10832381Y-13772976D01*
X10813333Y-13763452D01*
X10803810Y-13753928D01*
X10794286Y-13734881D01*
X10784762Y-13696786D01*
X10784762Y-13649167D01*
X10794286Y-13611071D01*
X10803810Y-13592024D01*
X10813333Y-13582500D01*
X10832381Y-13572976D01*
X10984762Y-13772976D02*
X10984762Y-13639643D01*
X10984762Y-13658690D02*
X10994286Y-13649167D01*
X11013333Y-13639643D01*
X11041905Y-13639643D01*
X11060952Y-13649167D01*
X11070476Y-13668214D01*
X11070476Y-13772976D01*
X11070476Y-13668214D02*
X11080000Y-13649167D01*
X11099048Y-13639643D01*
X11127619Y-13639643D01*
X11146667Y-13649167D01*
X11156190Y-13668214D01*
X11156190Y-13772976D01*
X11251428Y-13772976D02*
X11251428Y-13639643D01*
X11251428Y-13658690D02*
X11260952Y-13649167D01*
X11280000Y-13639643D01*
X11308571Y-13639643D01*
X11327619Y-13649167D01*
X11337143Y-13668214D01*
X11337143Y-13772976D01*
X11337143Y-13668214D02*
X11346667Y-13649167D01*
X11365714Y-13639643D01*
X11394286Y-13639643D01*
X11413333Y-13649167D01*
X11422857Y-13668214D01*
X11422857Y-13772976D01*
X11813333Y-13563452D02*
X11641905Y-13820595D01*
X12070476Y-13572976D02*
X12089524Y-13572976D01*
X12108571Y-13582500D01*
X12118095Y-13592024D01*
X12127619Y-13611071D01*
X12137143Y-13649167D01*
X12137143Y-13696786D01*
X12127619Y-13734881D01*
X12118095Y-13753928D01*
X12108571Y-13763452D01*
X12089524Y-13772976D01*
X12070476Y-13772976D01*
X12051428Y-13763452D01*
X12041905Y-13753928D01*
X12032381Y-13734881D01*
X12022857Y-13696786D01*
X12022857Y-13649167D01*
X12032381Y-13611071D01*
X12041905Y-13592024D01*
X12051428Y-13582500D01*
X12070476Y-13572976D01*
X12222857Y-13753928D02*
X12232381Y-13763452D01*
X12222857Y-13772976D01*
X12213333Y-13763452D01*
X12222857Y-13753928D01*
X12222857Y-13772976D01*
X12356190Y-13572976D02*
X12375238Y-13572976D01*
X12394286Y-13582500D01*
X12403809Y-13592024D01*
X12413333Y-13611071D01*
X12422857Y-13649167D01*
X12422857Y-13696786D01*
X12413333Y-13734881D01*
X12403809Y-13753928D01*
X12394286Y-13763452D01*
X12375238Y-13772976D01*
X12356190Y-13772976D01*
X12337143Y-13763452D01*
X12327619Y-13753928D01*
X12318095Y-13734881D01*
X12308571Y-13696786D01*
X12308571Y-13649167D01*
X12318095Y-13611071D01*
X12327619Y-13592024D01*
X12337143Y-13582500D01*
X12356190Y-13572976D01*
X12613333Y-13772976D02*
X12499048Y-13772976D01*
X12556190Y-13772976D02*
X12556190Y-13572976D01*
X12537143Y-13601548D01*
X12518095Y-13620595D01*
X12499048Y-13630119D01*
X12794286Y-13572976D02*
X12699048Y-13572976D01*
X12689524Y-13668214D01*
X12699048Y-13658690D01*
X12718095Y-13649167D01*
X12765714Y-13649167D01*
X12784762Y-13658690D01*
X12794286Y-13668214D01*
X12803809Y-13687262D01*
X12803809Y-13734881D01*
X12794286Y-13753928D01*
X12784762Y-13763452D01*
X12765714Y-13772976D01*
X12718095Y-13772976D01*
X12699048Y-13763452D01*
X12689524Y-13753928D01*
X12870476Y-13572976D02*
X13003809Y-13572976D01*
X12918095Y-13772976D01*
X13070476Y-13572976D02*
X13070476Y-13611071D01*
X13146667Y-13572976D02*
X13146667Y-13611071D01*
X13441905Y-13849167D02*
X13432381Y-13839643D01*
X13413333Y-13811071D01*
X13403809Y-13792024D01*
X13394286Y-13763452D01*
X13384762Y-13715833D01*
X13384762Y-13677738D01*
X13394286Y-13630119D01*
X13403809Y-13601548D01*
X13413333Y-13582500D01*
X13432381Y-13553928D01*
X13441905Y-13544405D01*
X13622857Y-13772976D02*
X13508571Y-13772976D01*
X13565714Y-13772976D02*
X13565714Y-13572976D01*
X13546667Y-13601548D01*
X13527619Y-13620595D01*
X13508571Y-13630119D01*
X13699048Y-13592024D02*
X13708571Y-13582500D01*
X13727619Y-13572976D01*
X13775238Y-13572976D01*
X13794286Y-13582500D01*
X13803809Y-13592024D01*
X13813333Y-13611071D01*
X13813333Y-13630119D01*
X13803809Y-13658690D01*
X13689524Y-13772976D01*
X13813333Y-13772976D01*
X14051428Y-13772976D02*
X14051428Y-13572976D01*
X14137143Y-13772976D02*
X14137143Y-13668214D01*
X14127619Y-13649167D01*
X14108571Y-13639643D01*
X14080000Y-13639643D01*
X14060952Y-13649167D01*
X14051428Y-13658690D01*
X14260952Y-13772976D02*
X14241905Y-13763452D01*
X14232381Y-13753928D01*
X14222857Y-13734881D01*
X14222857Y-13677738D01*
X14232381Y-13658690D01*
X14241905Y-13649167D01*
X14260952Y-13639643D01*
X14289524Y-13639643D01*
X14308571Y-13649167D01*
X14318095Y-13658690D01*
X14327619Y-13677738D01*
X14327619Y-13734881D01*
X14318095Y-13753928D01*
X14308571Y-13763452D01*
X14289524Y-13772976D01*
X14260952Y-13772976D01*
X14441905Y-13772976D02*
X14422857Y-13763452D01*
X14413333Y-13744405D01*
X14413333Y-13572976D01*
X14594286Y-13763452D02*
X14575238Y-13772976D01*
X14537143Y-13772976D01*
X14518095Y-13763452D01*
X14508571Y-13744405D01*
X14508571Y-13668214D01*
X14518095Y-13649167D01*
X14537143Y-13639643D01*
X14575238Y-13639643D01*
X14594286Y-13649167D01*
X14603809Y-13668214D01*
X14603809Y-13687262D01*
X14508571Y-13706309D01*
X14680000Y-13763452D02*
X14699048Y-13772976D01*
X14737143Y-13772976D01*
X14756190Y-13763452D01*
X14765714Y-13744405D01*
X14765714Y-13734881D01*
X14756190Y-13715833D01*
X14737143Y-13706309D01*
X14708571Y-13706309D01*
X14689524Y-13696786D01*
X14680000Y-13677738D01*
X14680000Y-13668214D01*
X14689524Y-13649167D01*
X14708571Y-13639643D01*
X14737143Y-13639643D01*
X14756190Y-13649167D01*
X14832381Y-13849167D02*
X14841905Y-13839643D01*
X14860952Y-13811071D01*
X14870476Y-13792024D01*
X14880000Y-13763452D01*
X14889524Y-13715833D01*
X14889524Y-13677738D01*
X14880000Y-13630119D01*
X14870476Y-13601548D01*
X14860952Y-13582500D01*
X14841905Y-13553928D01*
X14832381Y-13544405D01*
D13*
X9870000Y-13946500D02*
G75*
G03*
X9870000Y-13946500I-37500J0D01*
G01*
D11*
X10165714Y-13836976D02*
X10184762Y-13836976D01*
X10203810Y-13846500D01*
X10213333Y-13856024D01*
X10222857Y-13875071D01*
X10232381Y-13913167D01*
X10232381Y-13960786D01*
X10222857Y-13998881D01*
X10213333Y-14017928D01*
X10203810Y-14027452D01*
X10184762Y-14036976D01*
X10165714Y-14036976D01*
X10146667Y-14027452D01*
X10137143Y-14017928D01*
X10127619Y-13998881D01*
X10118095Y-13960786D01*
X10118095Y-13913167D01*
X10127619Y-13875071D01*
X10137143Y-13856024D01*
X10146667Y-13846500D01*
X10165714Y-13836976D01*
X10318095Y-14017928D02*
X10327619Y-14027452D01*
X10318095Y-14036976D01*
X10308571Y-14027452D01*
X10318095Y-14017928D01*
X10318095Y-14036976D01*
X10394286Y-13836976D02*
X10527619Y-13836976D01*
X10441905Y-14036976D01*
X10699048Y-13836976D02*
X10603810Y-13836976D01*
X10594286Y-13932214D01*
X10603810Y-13922690D01*
X10622857Y-13913167D01*
X10670476Y-13913167D01*
X10689524Y-13922690D01*
X10699048Y-13932214D01*
X10708571Y-13951262D01*
X10708571Y-13998881D01*
X10699048Y-14017928D01*
X10689524Y-14027452D01*
X10670476Y-14036976D01*
X10622857Y-14036976D01*
X10603810Y-14027452D01*
X10594286Y-14017928D01*
X10832381Y-13836976D02*
X10851429Y-13836976D01*
X10870476Y-13846500D01*
X10880000Y-13856024D01*
X10889524Y-13875071D01*
X10899048Y-13913167D01*
X10899048Y-13960786D01*
X10889524Y-13998881D01*
X10880000Y-14017928D01*
X10870476Y-14027452D01*
X10851429Y-14036976D01*
X10832381Y-14036976D01*
X10813333Y-14027452D01*
X10803810Y-14017928D01*
X10794286Y-13998881D01*
X10784762Y-13960786D01*
X10784762Y-13913167D01*
X10794286Y-13875071D01*
X10803810Y-13856024D01*
X10813333Y-13846500D01*
X10832381Y-13836976D01*
X10984762Y-14036976D02*
X10984762Y-13903643D01*
X10984762Y-13922690D02*
X10994286Y-13913167D01*
X11013333Y-13903643D01*
X11041905Y-13903643D01*
X11060952Y-13913167D01*
X11070476Y-13932214D01*
X11070476Y-14036976D01*
X11070476Y-13932214D02*
X11080000Y-13913167D01*
X11099048Y-13903643D01*
X11127619Y-13903643D01*
X11146667Y-13913167D01*
X11156190Y-13932214D01*
X11156190Y-14036976D01*
X11251428Y-14036976D02*
X11251428Y-13903643D01*
X11251428Y-13922690D02*
X11260952Y-13913167D01*
X11280000Y-13903643D01*
X11308571Y-13903643D01*
X11327619Y-13913167D01*
X11337143Y-13932214D01*
X11337143Y-14036976D01*
X11337143Y-13932214D02*
X11346667Y-13913167D01*
X11365714Y-13903643D01*
X11394286Y-13903643D01*
X11413333Y-13913167D01*
X11422857Y-13932214D01*
X11422857Y-14036976D01*
X11813333Y-13827452D02*
X11641905Y-14084595D01*
X12070476Y-13836976D02*
X12089524Y-13836976D01*
X12108571Y-13846500D01*
X12118095Y-13856024D01*
X12127619Y-13875071D01*
X12137143Y-13913167D01*
X12137143Y-13960786D01*
X12127619Y-13998881D01*
X12118095Y-14017928D01*
X12108571Y-14027452D01*
X12089524Y-14036976D01*
X12070476Y-14036976D01*
X12051428Y-14027452D01*
X12041905Y-14017928D01*
X12032381Y-13998881D01*
X12022857Y-13960786D01*
X12022857Y-13913167D01*
X12032381Y-13875071D01*
X12041905Y-13856024D01*
X12051428Y-13846500D01*
X12070476Y-13836976D01*
X12222857Y-14017928D02*
X12232381Y-14027452D01*
X12222857Y-14036976D01*
X12213333Y-14027452D01*
X12222857Y-14017928D01*
X12222857Y-14036976D01*
X12356190Y-13836976D02*
X12375238Y-13836976D01*
X12394286Y-13846500D01*
X12403809Y-13856024D01*
X12413333Y-13875071D01*
X12422857Y-13913167D01*
X12422857Y-13960786D01*
X12413333Y-13998881D01*
X12403809Y-14017928D01*
X12394286Y-14027452D01*
X12375238Y-14036976D01*
X12356190Y-14036976D01*
X12337143Y-14027452D01*
X12327619Y-14017928D01*
X12318095Y-13998881D01*
X12308571Y-13960786D01*
X12308571Y-13913167D01*
X12318095Y-13875071D01*
X12327619Y-13856024D01*
X12337143Y-13846500D01*
X12356190Y-13836976D01*
X12499048Y-13856024D02*
X12508571Y-13846500D01*
X12527619Y-13836976D01*
X12575238Y-13836976D01*
X12594286Y-13846500D01*
X12603809Y-13856024D01*
X12613333Y-13875071D01*
X12613333Y-13894119D01*
X12603809Y-13922690D01*
X12489524Y-14036976D01*
X12613333Y-14036976D01*
X12708571Y-14036976D02*
X12746667Y-14036976D01*
X12765714Y-14027452D01*
X12775238Y-14017928D01*
X12794286Y-13989357D01*
X12803809Y-13951262D01*
X12803809Y-13875071D01*
X12794286Y-13856024D01*
X12784762Y-13846500D01*
X12765714Y-13836976D01*
X12727619Y-13836976D01*
X12708571Y-13846500D01*
X12699048Y-13856024D01*
X12689524Y-13875071D01*
X12689524Y-13922690D01*
X12699048Y-13941738D01*
X12708571Y-13951262D01*
X12727619Y-13960786D01*
X12765714Y-13960786D01*
X12784762Y-13951262D01*
X12794286Y-13941738D01*
X12803809Y-13922690D01*
X12984762Y-13836976D02*
X12889524Y-13836976D01*
X12880000Y-13932214D01*
X12889524Y-13922690D01*
X12908571Y-13913167D01*
X12956190Y-13913167D01*
X12975238Y-13922690D01*
X12984762Y-13932214D01*
X12994286Y-13951262D01*
X12994286Y-13998881D01*
X12984762Y-14017928D01*
X12975238Y-14027452D01*
X12956190Y-14036976D01*
X12908571Y-14036976D01*
X12889524Y-14027452D01*
X12880000Y-14017928D01*
X13070476Y-13836976D02*
X13070476Y-13875071D01*
X13146667Y-13836976D02*
X13146667Y-13875071D01*
X13441905Y-14113167D02*
X13432381Y-14103643D01*
X13413333Y-14075071D01*
X13403809Y-14056024D01*
X13394286Y-14027452D01*
X13384762Y-13979833D01*
X13384762Y-13941738D01*
X13394286Y-13894119D01*
X13403809Y-13865548D01*
X13413333Y-13846500D01*
X13432381Y-13817928D01*
X13441905Y-13808405D01*
X13527619Y-14036976D02*
X13565714Y-14036976D01*
X13584762Y-14027452D01*
X13594286Y-14017928D01*
X13613333Y-13989357D01*
X13622857Y-13951262D01*
X13622857Y-13875071D01*
X13613333Y-13856024D01*
X13603809Y-13846500D01*
X13584762Y-13836976D01*
X13546667Y-13836976D01*
X13527619Y-13846500D01*
X13518095Y-13856024D01*
X13508571Y-13875071D01*
X13508571Y-13922690D01*
X13518095Y-13941738D01*
X13527619Y-13951262D01*
X13546667Y-13960786D01*
X13584762Y-13960786D01*
X13603809Y-13951262D01*
X13613333Y-13941738D01*
X13622857Y-13922690D01*
X13860952Y-14036976D02*
X13860952Y-13836976D01*
X13946667Y-14036976D02*
X13946667Y-13932214D01*
X13937143Y-13913167D01*
X13918095Y-13903643D01*
X13889524Y-13903643D01*
X13870476Y-13913167D01*
X13860952Y-13922690D01*
X14070476Y-14036976D02*
X14051428Y-14027452D01*
X14041905Y-14017928D01*
X14032381Y-13998881D01*
X14032381Y-13941738D01*
X14041905Y-13922690D01*
X14051428Y-13913167D01*
X14070476Y-13903643D01*
X14099048Y-13903643D01*
X14118095Y-13913167D01*
X14127619Y-13922690D01*
X14137143Y-13941738D01*
X14137143Y-13998881D01*
X14127619Y-14017928D01*
X14118095Y-14027452D01*
X14099048Y-14036976D01*
X14070476Y-14036976D01*
X14251428Y-14036976D02*
X14232381Y-14027452D01*
X14222857Y-14008405D01*
X14222857Y-13836976D01*
X14403809Y-14027452D02*
X14384762Y-14036976D01*
X14346667Y-14036976D01*
X14327619Y-14027452D01*
X14318095Y-14008405D01*
X14318095Y-13932214D01*
X14327619Y-13913167D01*
X14346667Y-13903643D01*
X14384762Y-13903643D01*
X14403809Y-13913167D01*
X14413333Y-13932214D01*
X14413333Y-13951262D01*
X14318095Y-13970309D01*
X14489524Y-14027452D02*
X14508571Y-14036976D01*
X14546667Y-14036976D01*
X14565714Y-14027452D01*
X14575238Y-14008405D01*
X14575238Y-13998881D01*
X14565714Y-13979833D01*
X14546667Y-13970309D01*
X14518095Y-13970309D01*
X14499048Y-13960786D01*
X14489524Y-13941738D01*
X14489524Y-13932214D01*
X14499048Y-13913167D01*
X14518095Y-13903643D01*
X14546667Y-13903643D01*
X14565714Y-13913167D01*
X14641905Y-14113167D02*
X14651428Y-14103643D01*
X14670476Y-14075071D01*
X14680000Y-14056024D01*
X14689524Y-14027452D01*
X14699048Y-13979833D01*
X14699048Y-13941738D01*
X14689524Y-13894119D01*
X14680000Y-13865548D01*
X14670476Y-13846500D01*
X14651428Y-13817928D01*
X14641905Y-13808405D01*
D14*
X9830000Y-14170500D02*
X9830000Y-14250500D01*
X9790000Y-14210500D02*
X9870000Y-14210500D01*
D11*
X10165714Y-14100976D02*
X10184762Y-14100976D01*
X10203810Y-14110500D01*
X10213333Y-14120024D01*
X10222857Y-14139071D01*
X10232381Y-14177167D01*
X10232381Y-14224786D01*
X10222857Y-14262881D01*
X10213333Y-14281928D01*
X10203810Y-14291452D01*
X10184762Y-14300976D01*
X10165714Y-14300976D01*
X10146667Y-14291452D01*
X10137143Y-14281928D01*
X10127619Y-14262881D01*
X10118095Y-14224786D01*
X10118095Y-14177167D01*
X10127619Y-14139071D01*
X10137143Y-14120024D01*
X10146667Y-14110500D01*
X10165714Y-14100976D01*
X10318095Y-14281928D02*
X10327619Y-14291452D01*
X10318095Y-14300976D01*
X10308571Y-14291452D01*
X10318095Y-14281928D01*
X10318095Y-14300976D01*
X10441905Y-14186690D02*
X10422857Y-14177167D01*
X10413333Y-14167643D01*
X10403810Y-14148595D01*
X10403810Y-14139071D01*
X10413333Y-14120024D01*
X10422857Y-14110500D01*
X10441905Y-14100976D01*
X10480000Y-14100976D01*
X10499048Y-14110500D01*
X10508571Y-14120024D01*
X10518095Y-14139071D01*
X10518095Y-14148595D01*
X10508571Y-14167643D01*
X10499048Y-14177167D01*
X10480000Y-14186690D01*
X10441905Y-14186690D01*
X10422857Y-14196214D01*
X10413333Y-14205738D01*
X10403810Y-14224786D01*
X10403810Y-14262881D01*
X10413333Y-14281928D01*
X10422857Y-14291452D01*
X10441905Y-14300976D01*
X10480000Y-14300976D01*
X10499048Y-14291452D01*
X10508571Y-14281928D01*
X10518095Y-14262881D01*
X10518095Y-14224786D01*
X10508571Y-14205738D01*
X10499048Y-14196214D01*
X10480000Y-14186690D01*
X10641905Y-14100976D02*
X10660952Y-14100976D01*
X10680000Y-14110500D01*
X10689524Y-14120024D01*
X10699048Y-14139071D01*
X10708571Y-14177167D01*
X10708571Y-14224786D01*
X10699048Y-14262881D01*
X10689524Y-14281928D01*
X10680000Y-14291452D01*
X10660952Y-14300976D01*
X10641905Y-14300976D01*
X10622857Y-14291452D01*
X10613333Y-14281928D01*
X10603810Y-14262881D01*
X10594286Y-14224786D01*
X10594286Y-14177167D01*
X10603810Y-14139071D01*
X10613333Y-14120024D01*
X10622857Y-14110500D01*
X10641905Y-14100976D01*
X10832381Y-14100976D02*
X10851429Y-14100976D01*
X10870476Y-14110500D01*
X10880000Y-14120024D01*
X10889524Y-14139071D01*
X10899048Y-14177167D01*
X10899048Y-14224786D01*
X10889524Y-14262881D01*
X10880000Y-14281928D01*
X10870476Y-14291452D01*
X10851429Y-14300976D01*
X10832381Y-14300976D01*
X10813333Y-14291452D01*
X10803810Y-14281928D01*
X10794286Y-14262881D01*
X10784762Y-14224786D01*
X10784762Y-14177167D01*
X10794286Y-14139071D01*
X10803810Y-14120024D01*
X10813333Y-14110500D01*
X10832381Y-14100976D01*
X10984762Y-14300976D02*
X10984762Y-14167643D01*
X10984762Y-14186690D02*
X10994286Y-14177167D01*
X11013333Y-14167643D01*
X11041905Y-14167643D01*
X11060952Y-14177167D01*
X11070476Y-14196214D01*
X11070476Y-14300976D01*
X11070476Y-14196214D02*
X11080000Y-14177167D01*
X11099048Y-14167643D01*
X11127619Y-14167643D01*
X11146667Y-14177167D01*
X11156190Y-14196214D01*
X11156190Y-14300976D01*
X11251428Y-14300976D02*
X11251428Y-14167643D01*
X11251428Y-14186690D02*
X11260952Y-14177167D01*
X11280000Y-14167643D01*
X11308571Y-14167643D01*
X11327619Y-14177167D01*
X11337143Y-14196214D01*
X11337143Y-14300976D01*
X11337143Y-14196214D02*
X11346667Y-14177167D01*
X11365714Y-14167643D01*
X11394286Y-14167643D01*
X11413333Y-14177167D01*
X11422857Y-14196214D01*
X11422857Y-14300976D01*
X11813333Y-14091452D02*
X11641905Y-14348595D01*
X12070476Y-14100976D02*
X12089524Y-14100976D01*
X12108571Y-14110500D01*
X12118095Y-14120024D01*
X12127619Y-14139071D01*
X12137143Y-14177167D01*
X12137143Y-14224786D01*
X12127619Y-14262881D01*
X12118095Y-14281928D01*
X12108571Y-14291452D01*
X12089524Y-14300976D01*
X12070476Y-14300976D01*
X12051428Y-14291452D01*
X12041905Y-14281928D01*
X12032381Y-14262881D01*
X12022857Y-14224786D01*
X12022857Y-14177167D01*
X12032381Y-14139071D01*
X12041905Y-14120024D01*
X12051428Y-14110500D01*
X12070476Y-14100976D01*
X12222857Y-14281928D02*
X12232381Y-14291452D01*
X12222857Y-14300976D01*
X12213333Y-14291452D01*
X12222857Y-14281928D01*
X12222857Y-14300976D01*
X12356190Y-14100976D02*
X12375238Y-14100976D01*
X12394286Y-14110500D01*
X12403809Y-14120024D01*
X12413333Y-14139071D01*
X12422857Y-14177167D01*
X12422857Y-14224786D01*
X12413333Y-14262881D01*
X12403809Y-14281928D01*
X12394286Y-14291452D01*
X12375238Y-14300976D01*
X12356190Y-14300976D01*
X12337143Y-14291452D01*
X12327619Y-14281928D01*
X12318095Y-14262881D01*
X12308571Y-14224786D01*
X12308571Y-14177167D01*
X12318095Y-14139071D01*
X12327619Y-14120024D01*
X12337143Y-14110500D01*
X12356190Y-14100976D01*
X12489524Y-14100976D02*
X12613333Y-14100976D01*
X12546667Y-14177167D01*
X12575238Y-14177167D01*
X12594286Y-14186690D01*
X12603809Y-14196214D01*
X12613333Y-14215262D01*
X12613333Y-14262881D01*
X12603809Y-14281928D01*
X12594286Y-14291452D01*
X12575238Y-14300976D01*
X12518095Y-14300976D01*
X12499048Y-14291452D01*
X12489524Y-14281928D01*
X12803809Y-14300976D02*
X12689524Y-14300976D01*
X12746667Y-14300976D02*
X12746667Y-14100976D01*
X12727619Y-14129548D01*
X12708571Y-14148595D01*
X12689524Y-14158119D01*
X12984762Y-14100976D02*
X12889524Y-14100976D01*
X12880000Y-14196214D01*
X12889524Y-14186690D01*
X12908571Y-14177167D01*
X12956190Y-14177167D01*
X12975238Y-14186690D01*
X12984762Y-14196214D01*
X12994286Y-14215262D01*
X12994286Y-14262881D01*
X12984762Y-14281928D01*
X12975238Y-14291452D01*
X12956190Y-14300976D01*
X12908571Y-14300976D01*
X12889524Y-14291452D01*
X12880000Y-14281928D01*
X13070476Y-14100976D02*
X13070476Y-14139071D01*
X13146667Y-14100976D02*
X13146667Y-14139071D01*
X13441905Y-14377167D02*
X13432381Y-14367643D01*
X13413333Y-14339071D01*
X13403809Y-14320024D01*
X13394286Y-14291452D01*
X13384762Y-14243833D01*
X13384762Y-14205738D01*
X13394286Y-14158119D01*
X13403809Y-14129548D01*
X13413333Y-14110500D01*
X13432381Y-14081928D01*
X13441905Y-14072405D01*
X13603809Y-14100976D02*
X13565714Y-14100976D01*
X13546667Y-14110500D01*
X13537143Y-14120024D01*
X13518095Y-14148595D01*
X13508571Y-14186690D01*
X13508571Y-14262881D01*
X13518095Y-14281928D01*
X13527619Y-14291452D01*
X13546667Y-14300976D01*
X13584762Y-14300976D01*
X13603809Y-14291452D01*
X13613333Y-14281928D01*
X13622857Y-14262881D01*
X13622857Y-14215262D01*
X13613333Y-14196214D01*
X13603809Y-14186690D01*
X13584762Y-14177167D01*
X13546667Y-14177167D01*
X13527619Y-14186690D01*
X13518095Y-14196214D01*
X13508571Y-14215262D01*
X13794286Y-14100976D02*
X13756190Y-14100976D01*
X13737143Y-14110500D01*
X13727619Y-14120024D01*
X13708571Y-14148595D01*
X13699048Y-14186690D01*
X13699048Y-14262881D01*
X13708571Y-14281928D01*
X13718095Y-14291452D01*
X13737143Y-14300976D01*
X13775238Y-14300976D01*
X13794286Y-14291452D01*
X13803809Y-14281928D01*
X13813333Y-14262881D01*
X13813333Y-14215262D01*
X13803809Y-14196214D01*
X13794286Y-14186690D01*
X13775238Y-14177167D01*
X13737143Y-14177167D01*
X13718095Y-14186690D01*
X13708571Y-14196214D01*
X13699048Y-14215262D01*
X14051428Y-14300976D02*
X14051428Y-14100976D01*
X14137143Y-14300976D02*
X14137143Y-14196214D01*
X14127619Y-14177167D01*
X14108571Y-14167643D01*
X14080000Y-14167643D01*
X14060952Y-14177167D01*
X14051428Y-14186690D01*
X14260952Y-14300976D02*
X14241905Y-14291452D01*
X14232381Y-14281928D01*
X14222857Y-14262881D01*
X14222857Y-14205738D01*
X14232381Y-14186690D01*
X14241905Y-14177167D01*
X14260952Y-14167643D01*
X14289524Y-14167643D01*
X14308571Y-14177167D01*
X14318095Y-14186690D01*
X14327619Y-14205738D01*
X14327619Y-14262881D01*
X14318095Y-14281928D01*
X14308571Y-14291452D01*
X14289524Y-14300976D01*
X14260952Y-14300976D01*
X14441905Y-14300976D02*
X14422857Y-14291452D01*
X14413333Y-14272405D01*
X14413333Y-14100976D01*
X14594286Y-14291452D02*
X14575238Y-14300976D01*
X14537143Y-14300976D01*
X14518095Y-14291452D01*
X14508571Y-14272405D01*
X14508571Y-14196214D01*
X14518095Y-14177167D01*
X14537143Y-14167643D01*
X14575238Y-14167643D01*
X14594286Y-14177167D01*
X14603809Y-14196214D01*
X14603809Y-14215262D01*
X14508571Y-14234309D01*
X14680000Y-14291452D02*
X14699048Y-14300976D01*
X14737143Y-14300976D01*
X14756190Y-14291452D01*
X14765714Y-14272405D01*
X14765714Y-14262881D01*
X14756190Y-14243833D01*
X14737143Y-14234309D01*
X14708571Y-14234309D01*
X14689524Y-14224786D01*
X14680000Y-14205738D01*
X14680000Y-14196214D01*
X14689524Y-14177167D01*
X14708571Y-14167643D01*
X14737143Y-14167643D01*
X14756190Y-14177167D01*
X14832381Y-14377167D02*
X14841905Y-14367643D01*
X14860952Y-14339071D01*
X14870476Y-14320024D01*
X14880000Y-14291452D01*
X14889524Y-14243833D01*
X14889524Y-14205738D01*
X14880000Y-14158119D01*
X14870476Y-14129548D01*
X14860952Y-14110500D01*
X14841905Y-14081928D01*
X14832381Y-14072405D01*
D15*
X9855356Y-14509856D02*
X9855356Y-14439144D01*
X9784644Y-14439144D01*
X9784644Y-14509856D01*
X9855356Y-14509856D01*
D11*
X10232381Y-14564976D02*
X10118095Y-14564976D01*
X10175238Y-14564976D02*
X10175238Y-14364976D01*
X10156190Y-14393548D01*
X10137143Y-14412595D01*
X10118095Y-14422119D01*
X10318095Y-14545928D02*
X10327619Y-14555452D01*
X10318095Y-14564976D01*
X10308571Y-14555452D01*
X10318095Y-14545928D01*
X10318095Y-14564976D01*
X10451429Y-14364976D02*
X10470476Y-14364976D01*
X10489524Y-14374500D01*
X10499048Y-14384024D01*
X10508571Y-14403071D01*
X10518095Y-14441167D01*
X10518095Y-14488786D01*
X10508571Y-14526881D01*
X10499048Y-14545928D01*
X10489524Y-14555452D01*
X10470476Y-14564976D01*
X10451429Y-14564976D01*
X10432381Y-14555452D01*
X10422857Y-14545928D01*
X10413333Y-14526881D01*
X10403810Y-14488786D01*
X10403810Y-14441167D01*
X10413333Y-14403071D01*
X10422857Y-14384024D01*
X10432381Y-14374500D01*
X10451429Y-14364976D01*
X10641905Y-14364976D02*
X10660952Y-14364976D01*
X10680000Y-14374500D01*
X10689524Y-14384024D01*
X10699048Y-14403071D01*
X10708571Y-14441167D01*
X10708571Y-14488786D01*
X10699048Y-14526881D01*
X10689524Y-14545928D01*
X10680000Y-14555452D01*
X10660952Y-14564976D01*
X10641905Y-14564976D01*
X10622857Y-14555452D01*
X10613333Y-14545928D01*
X10603810Y-14526881D01*
X10594286Y-14488786D01*
X10594286Y-14441167D01*
X10603810Y-14403071D01*
X10613333Y-14384024D01*
X10622857Y-14374500D01*
X10641905Y-14364976D01*
X10832381Y-14364976D02*
X10851429Y-14364976D01*
X10870476Y-14374500D01*
X10880000Y-14384024D01*
X10889524Y-14403071D01*
X10899048Y-14441167D01*
X10899048Y-14488786D01*
X10889524Y-14526881D01*
X10880000Y-14545928D01*
X10870476Y-14555452D01*
X10851429Y-14564976D01*
X10832381Y-14564976D01*
X10813333Y-14555452D01*
X10803810Y-14545928D01*
X10794286Y-14526881D01*
X10784762Y-14488786D01*
X10784762Y-14441167D01*
X10794286Y-14403071D01*
X10803810Y-14384024D01*
X10813333Y-14374500D01*
X10832381Y-14364976D01*
X10984762Y-14564976D02*
X10984762Y-14431643D01*
X10984762Y-14450690D02*
X10994286Y-14441167D01*
X11013333Y-14431643D01*
X11041905Y-14431643D01*
X11060952Y-14441167D01*
X11070476Y-14460214D01*
X11070476Y-14564976D01*
X11070476Y-14460214D02*
X11080000Y-14441167D01*
X11099048Y-14431643D01*
X11127619Y-14431643D01*
X11146667Y-14441167D01*
X11156190Y-14460214D01*
X11156190Y-14564976D01*
X11251428Y-14564976D02*
X11251428Y-14431643D01*
X11251428Y-14450690D02*
X11260952Y-14441167D01*
X11280000Y-14431643D01*
X11308571Y-14431643D01*
X11327619Y-14441167D01*
X11337143Y-14460214D01*
X11337143Y-14564976D01*
X11337143Y-14460214D02*
X11346667Y-14441167D01*
X11365714Y-14431643D01*
X11394286Y-14431643D01*
X11413333Y-14441167D01*
X11422857Y-14460214D01*
X11422857Y-14564976D01*
X11813333Y-14355452D02*
X11641905Y-14612595D01*
X12070476Y-14364976D02*
X12089524Y-14364976D01*
X12108571Y-14374500D01*
X12118095Y-14384024D01*
X12127619Y-14403071D01*
X12137143Y-14441167D01*
X12137143Y-14488786D01*
X12127619Y-14526881D01*
X12118095Y-14545928D01*
X12108571Y-14555452D01*
X12089524Y-14564976D01*
X12070476Y-14564976D01*
X12051428Y-14555452D01*
X12041905Y-14545928D01*
X12032381Y-14526881D01*
X12022857Y-14488786D01*
X12022857Y-14441167D01*
X12032381Y-14403071D01*
X12041905Y-14384024D01*
X12051428Y-14374500D01*
X12070476Y-14364976D01*
X12222857Y-14545928D02*
X12232381Y-14555452D01*
X12222857Y-14564976D01*
X12213333Y-14555452D01*
X12222857Y-14545928D01*
X12222857Y-14564976D01*
X12356190Y-14364976D02*
X12375238Y-14364976D01*
X12394286Y-14374500D01*
X12403809Y-14384024D01*
X12413333Y-14403071D01*
X12422857Y-14441167D01*
X12422857Y-14488786D01*
X12413333Y-14526881D01*
X12403809Y-14545928D01*
X12394286Y-14555452D01*
X12375238Y-14564976D01*
X12356190Y-14564976D01*
X12337143Y-14555452D01*
X12327619Y-14545928D01*
X12318095Y-14526881D01*
X12308571Y-14488786D01*
X12308571Y-14441167D01*
X12318095Y-14403071D01*
X12327619Y-14384024D01*
X12337143Y-14374500D01*
X12356190Y-14364976D01*
X12489524Y-14364976D02*
X12613333Y-14364976D01*
X12546667Y-14441167D01*
X12575238Y-14441167D01*
X12594286Y-14450690D01*
X12603809Y-14460214D01*
X12613333Y-14479262D01*
X12613333Y-14526881D01*
X12603809Y-14545928D01*
X12594286Y-14555452D01*
X12575238Y-14564976D01*
X12518095Y-14564976D01*
X12499048Y-14555452D01*
X12489524Y-14545928D01*
X12708571Y-14564976D02*
X12746667Y-14564976D01*
X12765714Y-14555452D01*
X12775238Y-14545928D01*
X12794286Y-14517357D01*
X12803809Y-14479262D01*
X12803809Y-14403071D01*
X12794286Y-14384024D01*
X12784762Y-14374500D01*
X12765714Y-14364976D01*
X12727619Y-14364976D01*
X12708571Y-14374500D01*
X12699048Y-14384024D01*
X12689524Y-14403071D01*
X12689524Y-14450690D01*
X12699048Y-14469738D01*
X12708571Y-14479262D01*
X12727619Y-14488786D01*
X12765714Y-14488786D01*
X12784762Y-14479262D01*
X12794286Y-14469738D01*
X12803809Y-14450690D01*
X12975238Y-14431643D02*
X12975238Y-14564976D01*
X12927619Y-14355452D02*
X12880000Y-14498309D01*
X13003809Y-14498309D01*
X13070476Y-14364976D02*
X13070476Y-14403071D01*
X13146667Y-14364976D02*
X13146667Y-14403071D01*
X13441905Y-14641167D02*
X13432381Y-14631643D01*
X13413333Y-14603071D01*
X13403809Y-14584024D01*
X13394286Y-14555452D01*
X13384762Y-14507833D01*
X13384762Y-14469738D01*
X13394286Y-14422119D01*
X13403809Y-14393548D01*
X13413333Y-14374500D01*
X13432381Y-14345928D01*
X13441905Y-14336405D01*
X13613333Y-14364976D02*
X13518095Y-14364976D01*
X13508571Y-14460214D01*
X13518095Y-14450690D01*
X13537143Y-14441167D01*
X13584762Y-14441167D01*
X13603809Y-14450690D01*
X13613333Y-14460214D01*
X13622857Y-14479262D01*
X13622857Y-14526881D01*
X13613333Y-14545928D01*
X13603809Y-14555452D01*
X13584762Y-14564976D01*
X13537143Y-14564976D01*
X13518095Y-14555452D01*
X13508571Y-14545928D01*
X13794286Y-14431643D02*
X13794286Y-14564976D01*
X13746667Y-14355452D02*
X13699048Y-14498309D01*
X13822857Y-14498309D01*
X14051428Y-14564976D02*
X14051428Y-14364976D01*
X14137143Y-14564976D02*
X14137143Y-14460214D01*
X14127619Y-14441167D01*
X14108571Y-14431643D01*
X14080000Y-14431643D01*
X14060952Y-14441167D01*
X14051428Y-14450690D01*
X14260952Y-14564976D02*
X14241905Y-14555452D01*
X14232381Y-14545928D01*
X14222857Y-14526881D01*
X14222857Y-14469738D01*
X14232381Y-14450690D01*
X14241905Y-14441167D01*
X14260952Y-14431643D01*
X14289524Y-14431643D01*
X14308571Y-14441167D01*
X14318095Y-14450690D01*
X14327619Y-14469738D01*
X14327619Y-14526881D01*
X14318095Y-14545928D01*
X14308571Y-14555452D01*
X14289524Y-14564976D01*
X14260952Y-14564976D01*
X14441905Y-14564976D02*
X14422857Y-14555452D01*
X14413333Y-14536405D01*
X14413333Y-14364976D01*
X14594286Y-14555452D02*
X14575238Y-14564976D01*
X14537143Y-14564976D01*
X14518095Y-14555452D01*
X14508571Y-14536405D01*
X14508571Y-14460214D01*
X14518095Y-14441167D01*
X14537143Y-14431643D01*
X14575238Y-14431643D01*
X14594286Y-14441167D01*
X14603809Y-14460214D01*
X14603809Y-14479262D01*
X14508571Y-14498309D01*
X14680000Y-14555452D02*
X14699048Y-14564976D01*
X14737143Y-14564976D01*
X14756190Y-14555452D01*
X14765714Y-14536405D01*
X14765714Y-14526881D01*
X14756190Y-14507833D01*
X14737143Y-14498309D01*
X14708571Y-14498309D01*
X14689524Y-14488786D01*
X14680000Y-14469738D01*
X14680000Y-14460214D01*
X14689524Y-14441167D01*
X14708571Y-14431643D01*
X14737143Y-14431643D01*
X14756190Y-14441167D01*
X14832381Y-14641167D02*
X14841905Y-14631643D01*
X14860952Y-14603071D01*
X14870476Y-14584024D01*
X14880000Y-14555452D01*
X14889524Y-14507833D01*
X14889524Y-14469738D01*
X14880000Y-14422119D01*
X14870476Y-14393548D01*
X14860952Y-14374500D01*
X14841905Y-14345928D01*
X14832381Y-14336405D01*
X9770000Y-14838500D02*
X9870000Y-14738500D01*
X9770000Y-14638500D01*
X9670000Y-14738500D01*
X9770000Y-14838500D01*
X10108571Y-14628976D02*
X10232381Y-14628976D01*
X10165714Y-14705167D01*
X10194286Y-14705167D01*
X10213333Y-14714690D01*
X10222857Y-14724214D01*
X10232381Y-14743262D01*
X10232381Y-14790881D01*
X10222857Y-14809928D01*
X10213333Y-14819452D01*
X10194286Y-14828976D01*
X10137143Y-14828976D01*
X10118095Y-14819452D01*
X10108571Y-14809928D01*
X10318095Y-14809928D02*
X10327619Y-14819452D01*
X10318095Y-14828976D01*
X10308571Y-14819452D01*
X10318095Y-14809928D01*
X10318095Y-14828976D01*
X10403810Y-14648024D02*
X10413333Y-14638500D01*
X10432381Y-14628976D01*
X10480000Y-14628976D01*
X10499048Y-14638500D01*
X10508571Y-14648024D01*
X10518095Y-14667071D01*
X10518095Y-14686119D01*
X10508571Y-14714690D01*
X10394286Y-14828976D01*
X10518095Y-14828976D01*
X10641905Y-14628976D02*
X10660952Y-14628976D01*
X10680000Y-14638500D01*
X10689524Y-14648024D01*
X10699048Y-14667071D01*
X10708571Y-14705167D01*
X10708571Y-14752786D01*
X10699048Y-14790881D01*
X10689524Y-14809928D01*
X10680000Y-14819452D01*
X10660952Y-14828976D01*
X10641905Y-14828976D01*
X10622857Y-14819452D01*
X10613333Y-14809928D01*
X10603810Y-14790881D01*
X10594286Y-14752786D01*
X10594286Y-14705167D01*
X10603810Y-14667071D01*
X10613333Y-14648024D01*
X10622857Y-14638500D01*
X10641905Y-14628976D01*
X10832381Y-14628976D02*
X10851429Y-14628976D01*
X10870476Y-14638500D01*
X10880000Y-14648024D01*
X10889524Y-14667071D01*
X10899048Y-14705167D01*
X10899048Y-14752786D01*
X10889524Y-14790881D01*
X10880000Y-14809928D01*
X10870476Y-14819452D01*
X10851429Y-14828976D01*
X10832381Y-14828976D01*
X10813333Y-14819452D01*
X10803810Y-14809928D01*
X10794286Y-14790881D01*
X10784762Y-14752786D01*
X10784762Y-14705167D01*
X10794286Y-14667071D01*
X10803810Y-14648024D01*
X10813333Y-14638500D01*
X10832381Y-14628976D01*
X10984762Y-14828976D02*
X10984762Y-14695643D01*
X10984762Y-14714690D02*
X10994286Y-14705167D01*
X11013333Y-14695643D01*
X11041905Y-14695643D01*
X11060952Y-14705167D01*
X11070476Y-14724214D01*
X11070476Y-14828976D01*
X11070476Y-14724214D02*
X11080000Y-14705167D01*
X11099048Y-14695643D01*
X11127619Y-14695643D01*
X11146667Y-14705167D01*
X11156190Y-14724214D01*
X11156190Y-14828976D01*
X11251428Y-14828976D02*
X11251428Y-14695643D01*
X11251428Y-14714690D02*
X11260952Y-14705167D01*
X11280000Y-14695643D01*
X11308571Y-14695643D01*
X11327619Y-14705167D01*
X11337143Y-14724214D01*
X11337143Y-14828976D01*
X11337143Y-14724214D02*
X11346667Y-14705167D01*
X11365714Y-14695643D01*
X11394286Y-14695643D01*
X11413333Y-14705167D01*
X11422857Y-14724214D01*
X11422857Y-14828976D01*
X11813333Y-14619452D02*
X11641905Y-14876595D01*
X12070476Y-14628976D02*
X12089524Y-14628976D01*
X12108571Y-14638500D01*
X12118095Y-14648024D01*
X12127619Y-14667071D01*
X12137143Y-14705167D01*
X12137143Y-14752786D01*
X12127619Y-14790881D01*
X12118095Y-14809928D01*
X12108571Y-14819452D01*
X12089524Y-14828976D01*
X12070476Y-14828976D01*
X12051428Y-14819452D01*
X12041905Y-14809928D01*
X12032381Y-14790881D01*
X12022857Y-14752786D01*
X12022857Y-14705167D01*
X12032381Y-14667071D01*
X12041905Y-14648024D01*
X12051428Y-14638500D01*
X12070476Y-14628976D01*
X12222857Y-14809928D02*
X12232381Y-14819452D01*
X12222857Y-14828976D01*
X12213333Y-14819452D01*
X12222857Y-14809928D01*
X12222857Y-14828976D01*
X12422857Y-14828976D02*
X12308571Y-14828976D01*
X12365714Y-14828976D02*
X12365714Y-14628976D01*
X12346667Y-14657548D01*
X12327619Y-14676595D01*
X12308571Y-14686119D01*
X12499048Y-14648024D02*
X12508571Y-14638500D01*
X12527619Y-14628976D01*
X12575238Y-14628976D01*
X12594286Y-14638500D01*
X12603809Y-14648024D01*
X12613333Y-14667071D01*
X12613333Y-14686119D01*
X12603809Y-14714690D01*
X12489524Y-14828976D01*
X12613333Y-14828976D01*
X12784762Y-14628976D02*
X12746667Y-14628976D01*
X12727619Y-14638500D01*
X12718095Y-14648024D01*
X12699048Y-14676595D01*
X12689524Y-14714690D01*
X12689524Y-14790881D01*
X12699048Y-14809928D01*
X12708571Y-14819452D01*
X12727619Y-14828976D01*
X12765714Y-14828976D01*
X12784762Y-14819452D01*
X12794286Y-14809928D01*
X12803809Y-14790881D01*
X12803809Y-14743262D01*
X12794286Y-14724214D01*
X12784762Y-14714690D01*
X12765714Y-14705167D01*
X12727619Y-14705167D01*
X12708571Y-14714690D01*
X12699048Y-14724214D01*
X12689524Y-14743262D01*
X12927619Y-14628976D02*
X12946667Y-14628976D01*
X12965714Y-14638500D01*
X12975238Y-14648024D01*
X12984762Y-14667071D01*
X12994286Y-14705167D01*
X12994286Y-14752786D01*
X12984762Y-14790881D01*
X12975238Y-14809928D01*
X12965714Y-14819452D01*
X12946667Y-14828976D01*
X12927619Y-14828976D01*
X12908571Y-14819452D01*
X12899048Y-14809928D01*
X12889524Y-14790881D01*
X12880000Y-14752786D01*
X12880000Y-14705167D01*
X12889524Y-14667071D01*
X12899048Y-14648024D01*
X12908571Y-14638500D01*
X12927619Y-14628976D01*
X13070476Y-14628976D02*
X13070476Y-14667071D01*
X13146667Y-14628976D02*
X13146667Y-14667071D01*
X13441905Y-14905167D02*
X13432381Y-14895643D01*
X13413333Y-14867071D01*
X13403809Y-14848024D01*
X13394286Y-14819452D01*
X13384762Y-14771833D01*
X13384762Y-14733738D01*
X13394286Y-14686119D01*
X13403809Y-14657548D01*
X13413333Y-14638500D01*
X13432381Y-14609928D01*
X13441905Y-14600405D01*
X13603809Y-14695643D02*
X13603809Y-14828976D01*
X13556190Y-14619452D02*
X13508571Y-14762309D01*
X13632381Y-14762309D01*
X13860952Y-14828976D02*
X13860952Y-14628976D01*
X13946667Y-14828976D02*
X13946667Y-14724214D01*
X13937143Y-14705167D01*
X13918095Y-14695643D01*
X13889524Y-14695643D01*
X13870476Y-14705167D01*
X13860952Y-14714690D01*
X14070476Y-14828976D02*
X14051428Y-14819452D01*
X14041905Y-14809928D01*
X14032381Y-14790881D01*
X14032381Y-14733738D01*
X14041905Y-14714690D01*
X14051428Y-14705167D01*
X14070476Y-14695643D01*
X14099048Y-14695643D01*
X14118095Y-14705167D01*
X14127619Y-14714690D01*
X14137143Y-14733738D01*
X14137143Y-14790881D01*
X14127619Y-14809928D01*
X14118095Y-14819452D01*
X14099048Y-14828976D01*
X14070476Y-14828976D01*
X14251428Y-14828976D02*
X14232381Y-14819452D01*
X14222857Y-14800405D01*
X14222857Y-14628976D01*
X14403809Y-14819452D02*
X14384762Y-14828976D01*
X14346667Y-14828976D01*
X14327619Y-14819452D01*
X14318095Y-14800405D01*
X14318095Y-14724214D01*
X14327619Y-14705167D01*
X14346667Y-14695643D01*
X14384762Y-14695643D01*
X14403809Y-14705167D01*
X14413333Y-14724214D01*
X14413333Y-14743262D01*
X14318095Y-14762309D01*
X14489524Y-14819452D02*
X14508571Y-14828976D01*
X14546667Y-14828976D01*
X14565714Y-14819452D01*
X14575238Y-14800405D01*
X14575238Y-14790881D01*
X14565714Y-14771833D01*
X14546667Y-14762309D01*
X14518095Y-14762309D01*
X14499048Y-14752786D01*
X14489524Y-14733738D01*
X14489524Y-14724214D01*
X14499048Y-14705167D01*
X14518095Y-14695643D01*
X14546667Y-14695643D01*
X14565714Y-14705167D01*
X14641905Y-14905167D02*
X14651428Y-14895643D01*
X14670476Y-14867071D01*
X14680000Y-14848024D01*
X14689524Y-14819452D01*
X14699048Y-14771833D01*
X14699048Y-14733738D01*
X14689524Y-14686119D01*
X14680000Y-14657548D01*
X14670476Y-14638500D01*
X14651428Y-14609928D01*
X14641905Y-14600405D01*
M02*
