M48
; DRILL file {KiCad 6.0.1-79c1e3a40b~116~ubuntu21.04.1} date Sat 23 Apr 2022 05:06:44 PM
; FORMAT={-:-/ absolute / metric / decimal}
; #@! TF.CreationDate,2022-04-23T17:06:44-04:00
; #@! TF.GenerationSoftware,Kicad,Pcbnew,6.0.1-79c1e3a40b~116~ubuntu21.04.1
; #@! TF.FileFunction,Plated,1,2,PTH
FMAT,2
METRIC
; #@! TA.AperFunction,Plated,PTH,ViaDrill
T1C0.400
; #@! TA.AperFunction,Plated,PTH,ComponentDrill
T2C0.750
; #@! TA.AperFunction,Plated,PTH,ComponentDrill
T3C0.800
; #@! TA.AperFunction,Plated,PTH,ComponentDrill
T4C1.000
; #@! TA.AperFunction,Plated,PTH,ComponentDrill
T5C3.200
%
G90
G05
T1
X150.375Y-97.125
X150.375Y-98.625
X150.875Y-80.625
X150.875Y-82.489
X151.125Y-112.125
X151.125Y-113.625
X154.4Y-99.625
X154.57Y-83.601
X154.625Y-114.625
X156.375Y-96.125
X156.375Y-111.05
X156.625Y-79.949
T2
X163.855Y-80.235
X163.855Y-95.565
X163.855Y-111.315
X165.125Y-80.235
X165.125Y-95.565
X165.125Y-111.315
X166.395Y-80.235
X166.395Y-95.565
X166.395Y-111.315
T3
X114.545Y-93.875
X114.545Y-98.625
X114.545Y-103.375
X114.545Y-108.375
X114.545Y-113.125
X114.545Y-117.875
X114.695Y-78.795
X114.695Y-83.545
X114.695Y-88.295
X124.705Y-93.875
X124.705Y-98.625
X124.705Y-103.375
X124.705Y-108.375
X124.705Y-113.125
X124.705Y-117.875
X124.855Y-78.795
X124.855Y-83.545
X124.855Y-88.295
X130.445Y-78.795
X130.445Y-83.545
X130.445Y-88.295
X130.445Y-93.875
X130.445Y-98.625
X130.445Y-103.375
X130.445Y-108.375
X130.445Y-113.125
X130.445Y-117.875
X140.605Y-78.795
X140.605Y-83.545
X140.605Y-88.295
X140.605Y-93.875
X140.605Y-98.625
X140.605Y-103.375
X140.605Y-108.375
X140.605Y-113.125
X140.605Y-117.875
X145.57Y-79.375
X145.57Y-87.125
X145.57Y-95.375
X145.57Y-102.875
X145.57Y-110.375
X145.57Y-117.875
X148.07Y-79.375
X148.07Y-87.125
X148.07Y-95.375
X148.07Y-102.875
X148.07Y-110.375
X148.07Y-117.875
X163.92Y-87.375
X163.92Y-102.205
X163.92Y-117.955
X166.42Y-87.375
X166.42Y-102.205
X166.42Y-117.955
X171.67Y-79.125
X171.67Y-87.045
X171.67Y-95.375
X171.67Y-102.875
X171.67Y-110.875
X171.67Y-118.125
X174.17Y-79.125
X174.17Y-87.045
X174.17Y-95.375
X174.17Y-102.875
X174.17Y-110.875
X174.17Y-118.125
T4
X102.575Y-80.325
X102.575Y-82.865
X102.575Y-85.405
X102.575Y-87.945
X102.575Y-95.325
X102.575Y-97.865
X102.575Y-100.405
X102.575Y-102.945
X102.575Y-109.325
X102.575Y-111.865
X102.575Y-114.405
X102.575Y-116.945
X108.875Y-80.325
X108.875Y-82.865
X108.875Y-85.405
X108.875Y-87.945
X108.875Y-95.325
X108.875Y-97.865
X108.875Y-100.405
X108.875Y-102.945
X108.875Y-109.325
X108.875Y-111.865
X108.875Y-114.405
X108.875Y-116.945
X181.39Y-80.875
X181.39Y-83.415
X181.39Y-85.955
X181.39Y-88.495
X181.39Y-91.035
X181.39Y-93.575
X181.39Y-96.115
X181.39Y-98.655
X181.39Y-101.195
X181.39Y-103.735
X181.39Y-106.275
X181.39Y-108.815
X181.39Y-111.355
X181.39Y-113.895
X181.39Y-116.435
X196.63Y-80.875
X196.63Y-83.415
X196.63Y-85.955
X196.63Y-88.495
X196.63Y-91.035
X196.63Y-93.575
X196.63Y-96.115
X196.63Y-98.655
X196.63Y-101.195
X196.63Y-103.735
X196.63Y-106.275
X196.63Y-108.815
X196.63Y-111.355
X196.63Y-113.895
X196.63Y-116.435
T5
X102.0Y-72.0
X102.0Y-127.0
X197.0Y-72.0
X197.0Y-127.0
T0
M30
