%TF.GenerationSoftware,KiCad,Pcbnew,6.0.1-79c1e3a40b~116~ubuntu21.04.1*%
%TF.CreationDate,2022-04-23T17:06:41-04:00*%
%TF.ProjectId,wing_tester,77696e67-5f74-4657-9374-65722e6b6963,rev?*%
%TF.SameCoordinates,Original*%
%TF.FileFunction,Legend,Bot*%
%TF.FilePolarity,Positive*%
%FSLAX46Y46*%
G04 Gerber Fmt 4.6, Leading zero omitted, Abs format (unit mm)*
G04 Created by KiCad (PCBNEW 6.0.1-79c1e3a40b~116~ubuntu21.04.1) date 2022-04-23 17:06:41*
%MOMM*%
%LPD*%
G01*
G04 APERTURE LIST*
%ADD10C,0.150000*%
%ADD11C,1.600000*%
%ADD12R,1.600000X1.600000*%
%ADD13O,1.600000X1.600000*%
%ADD14R,1.700000X1.700000*%
%ADD15O,1.700000X1.700000*%
%ADD16R,1.050000X1.500000*%
%ADD17O,1.050000X1.500000*%
%ADD18C,5.700000*%
G04 APERTURE END LIST*
D10*
X118988095Y-127452380D02*
X118988095Y-126452380D01*
X118750000Y-126452380D01*
X118607142Y-126500000D01*
X118511904Y-126595238D01*
X118464285Y-126690476D01*
X118416666Y-126880952D01*
X118416666Y-127023809D01*
X118464285Y-127214285D01*
X118511904Y-127309523D01*
X118607142Y-127404761D01*
X118750000Y-127452380D01*
X118988095Y-127452380D01*
X117607142Y-127404761D02*
X117702380Y-127452380D01*
X117892857Y-127452380D01*
X117988095Y-127404761D01*
X118035714Y-127309523D01*
X118035714Y-126928571D01*
X117988095Y-126833333D01*
X117892857Y-126785714D01*
X117702380Y-126785714D01*
X117607142Y-126833333D01*
X117559523Y-126928571D01*
X117559523Y-127023809D01*
X118035714Y-127119047D01*
X117178571Y-127404761D02*
X117083333Y-127452380D01*
X116892857Y-127452380D01*
X116797619Y-127404761D01*
X116750000Y-127309523D01*
X116750000Y-127261904D01*
X116797619Y-127166666D01*
X116892857Y-127119047D01*
X117035714Y-127119047D01*
X117130952Y-127071428D01*
X117178571Y-126976190D01*
X117178571Y-126928571D01*
X117130952Y-126833333D01*
X117035714Y-126785714D01*
X116892857Y-126785714D01*
X116797619Y-126833333D01*
X116321428Y-127452380D02*
X116321428Y-126785714D01*
X116321428Y-126452380D02*
X116369047Y-126500000D01*
X116321428Y-126547619D01*
X116273809Y-126500000D01*
X116321428Y-126452380D01*
X116321428Y-126547619D01*
X115416666Y-126785714D02*
X115416666Y-127595238D01*
X115464285Y-127690476D01*
X115511904Y-127738095D01*
X115607142Y-127785714D01*
X115750000Y-127785714D01*
X115845238Y-127738095D01*
X115416666Y-127404761D02*
X115511904Y-127452380D01*
X115702380Y-127452380D01*
X115797619Y-127404761D01*
X115845238Y-127357142D01*
X115892857Y-127261904D01*
X115892857Y-126976190D01*
X115845238Y-126880952D01*
X115797619Y-126833333D01*
X115702380Y-126785714D01*
X115511904Y-126785714D01*
X115416666Y-126833333D01*
X114940476Y-126785714D02*
X114940476Y-127452380D01*
X114940476Y-126880952D02*
X114892857Y-126833333D01*
X114797619Y-126785714D01*
X114654761Y-126785714D01*
X114559523Y-126833333D01*
X114511904Y-126928571D01*
X114511904Y-127452380D01*
X113654761Y-127404761D02*
X113750000Y-127452380D01*
X113940476Y-127452380D01*
X114035714Y-127404761D01*
X114083333Y-127309523D01*
X114083333Y-126928571D01*
X114035714Y-126833333D01*
X113940476Y-126785714D01*
X113750000Y-126785714D01*
X113654761Y-126833333D01*
X113607142Y-126928571D01*
X113607142Y-127023809D01*
X114083333Y-127119047D01*
X112750000Y-127452380D02*
X112750000Y-126452380D01*
X112750000Y-127404761D02*
X112845238Y-127452380D01*
X113035714Y-127452380D01*
X113130952Y-127404761D01*
X113178571Y-127357142D01*
X113226190Y-127261904D01*
X113226190Y-126976190D01*
X113178571Y-126880952D01*
X113130952Y-126833333D01*
X113035714Y-126785714D01*
X112845238Y-126785714D01*
X112750000Y-126833333D01*
X111511904Y-127452380D02*
X111511904Y-126452380D01*
X111511904Y-126833333D02*
X111416666Y-126785714D01*
X111226190Y-126785714D01*
X111130952Y-126833333D01*
X111083333Y-126880952D01*
X111035714Y-126976190D01*
X111035714Y-127261904D01*
X111083333Y-127357142D01*
X111130952Y-127404761D01*
X111226190Y-127452380D01*
X111416666Y-127452380D01*
X111511904Y-127404761D01*
X110702380Y-126785714D02*
X110464285Y-127452380D01*
X110226190Y-126785714D02*
X110464285Y-127452380D01*
X110559523Y-127690476D01*
X110607142Y-127738095D01*
X110702380Y-127785714D01*
X109226190Y-126452380D02*
X108654761Y-126452380D01*
X108940476Y-127452380D02*
X108940476Y-126452380D01*
X108321428Y-127452380D02*
X108321428Y-126785714D01*
X108321428Y-126452380D02*
X108369047Y-126500000D01*
X108321428Y-126547619D01*
X108273809Y-126500000D01*
X108321428Y-126452380D01*
X108321428Y-126547619D01*
X107416666Y-127452380D02*
X107416666Y-126928571D01*
X107464285Y-126833333D01*
X107559523Y-126785714D01*
X107750000Y-126785714D01*
X107845238Y-126833333D01*
X107416666Y-127404761D02*
X107511904Y-127452380D01*
X107750000Y-127452380D01*
X107845238Y-127404761D01*
X107892857Y-127309523D01*
X107892857Y-127214285D01*
X107845238Y-127119047D01*
X107750000Y-127071428D01*
X107511904Y-127071428D01*
X107416666Y-127023809D01*
X106940476Y-126785714D02*
X106940476Y-127452380D01*
X106940476Y-126880952D02*
X106892857Y-126833333D01*
X106797619Y-126785714D01*
X106654761Y-126785714D01*
X106559523Y-126833333D01*
X106511904Y-126928571D01*
X106511904Y-127452380D01*
X192797619Y-127452380D02*
X192797619Y-126452380D01*
X192464285Y-127166666D01*
X192130952Y-126452380D01*
X192130952Y-127452380D01*
X191750000Y-126452380D02*
X191130952Y-126452380D01*
X191464285Y-126833333D01*
X191321428Y-126833333D01*
X191226190Y-126880952D01*
X191178571Y-126928571D01*
X191130952Y-127023809D01*
X191130952Y-127261904D01*
X191178571Y-127357142D01*
X191226190Y-127404761D01*
X191321428Y-127452380D01*
X191607142Y-127452380D01*
X191702380Y-127404761D01*
X191750000Y-127357142D01*
X189940476Y-127452380D02*
X189940476Y-126452380D01*
X189511904Y-127452380D02*
X189511904Y-126928571D01*
X189559523Y-126833333D01*
X189654761Y-126785714D01*
X189797619Y-126785714D01*
X189892857Y-126833333D01*
X189940476Y-126880952D01*
X188892857Y-127452380D02*
X188988095Y-127404761D01*
X189035714Y-127357142D01*
X189083333Y-127261904D01*
X189083333Y-126976190D01*
X189035714Y-126880952D01*
X188988095Y-126833333D01*
X188892857Y-126785714D01*
X188750000Y-126785714D01*
X188654761Y-126833333D01*
X188607142Y-126880952D01*
X188559523Y-126976190D01*
X188559523Y-127261904D01*
X188607142Y-127357142D01*
X188654761Y-127404761D01*
X188750000Y-127452380D01*
X188892857Y-127452380D01*
X187988095Y-127452380D02*
X188083333Y-127404761D01*
X188130952Y-127309523D01*
X188130952Y-126452380D01*
X187226190Y-127404761D02*
X187321428Y-127452380D01*
X187511904Y-127452380D01*
X187607142Y-127404761D01*
X187654761Y-127309523D01*
X187654761Y-126928571D01*
X187607142Y-126833333D01*
X187511904Y-126785714D01*
X187321428Y-126785714D01*
X187226190Y-126833333D01*
X187178571Y-126928571D01*
X187178571Y-127023809D01*
X187654761Y-127119047D01*
X186797619Y-127404761D02*
X186702380Y-127452380D01*
X186511904Y-127452380D01*
X186416666Y-127404761D01*
X186369047Y-127309523D01*
X186369047Y-127261904D01*
X186416666Y-127166666D01*
X186511904Y-127119047D01*
X186654761Y-127119047D01*
X186750000Y-127071428D01*
X186797619Y-126976190D01*
X186797619Y-126928571D01*
X186750000Y-126833333D01*
X186654761Y-126785714D01*
X186511904Y-126785714D01*
X186416666Y-126833333D01*
X185940476Y-127357142D02*
X185892857Y-127404761D01*
X185940476Y-127452380D01*
X185988095Y-127404761D01*
X185940476Y-127357142D01*
X185940476Y-127452380D01*
X185940476Y-126833333D02*
X185892857Y-126880952D01*
X185940476Y-126928571D01*
X185988095Y-126880952D01*
X185940476Y-126833333D01*
X185940476Y-126928571D01*
X184226190Y-126452380D02*
X184702380Y-126452380D01*
X184750000Y-126928571D01*
X184702380Y-126880952D01*
X184607142Y-126833333D01*
X184369047Y-126833333D01*
X184273809Y-126880952D01*
X184226190Y-126928571D01*
X184178571Y-127023809D01*
X184178571Y-127261904D01*
X184226190Y-127357142D01*
X184273809Y-127404761D01*
X184369047Y-127452380D01*
X184607142Y-127452380D01*
X184702380Y-127404761D01*
X184750000Y-127357142D01*
X183273809Y-126452380D02*
X183750000Y-126452380D01*
X183797619Y-126928571D01*
X183750000Y-126880952D01*
X183654761Y-126833333D01*
X183416666Y-126833333D01*
X183321428Y-126880952D01*
X183273809Y-126928571D01*
X183226190Y-127023809D01*
X183226190Y-127261904D01*
X183273809Y-127357142D01*
X183321428Y-127404761D01*
X183416666Y-127452380D01*
X183654761Y-127452380D01*
X183750000Y-127404761D01*
X183797619Y-127357142D01*
X182797619Y-127452380D02*
X182797619Y-126785714D01*
X182797619Y-126880952D02*
X182750000Y-126833333D01*
X182654761Y-126785714D01*
X182511904Y-126785714D01*
X182416666Y-126833333D01*
X182369047Y-126928571D01*
X182369047Y-127452380D01*
X182369047Y-126928571D02*
X182321428Y-126833333D01*
X182226190Y-126785714D01*
X182083333Y-126785714D01*
X181988095Y-126833333D01*
X181940476Y-126928571D01*
X181940476Y-127452380D01*
X181464285Y-127452380D02*
X181464285Y-126785714D01*
X181464285Y-126880952D02*
X181416666Y-126833333D01*
X181321428Y-126785714D01*
X181178571Y-126785714D01*
X181083333Y-126833333D01*
X181035714Y-126928571D01*
X181035714Y-127452380D01*
X181035714Y-126928571D02*
X180988095Y-126833333D01*
X180892857Y-126785714D01*
X180750000Y-126785714D01*
X180654761Y-126833333D01*
X180607142Y-126928571D01*
X180607142Y-127452380D01*
X179464285Y-127452380D02*
X178940476Y-126785714D01*
X179464285Y-126785714D02*
X178940476Y-127452380D01*
X177750000Y-127452380D02*
X177559523Y-127452380D01*
X177464285Y-127404761D01*
X177416666Y-127357142D01*
X177321428Y-127214285D01*
X177273809Y-127023809D01*
X177273809Y-126642857D01*
X177321428Y-126547619D01*
X177369047Y-126500000D01*
X177464285Y-126452380D01*
X177654761Y-126452380D01*
X177750000Y-126500000D01*
X177797619Y-126547619D01*
X177845238Y-126642857D01*
X177845238Y-126880952D01*
X177797619Y-126976190D01*
X177750000Y-127023809D01*
X177654761Y-127071428D01*
X177464285Y-127071428D01*
X177369047Y-127023809D01*
X177321428Y-126976190D01*
X177273809Y-126880952D01*
X176369047Y-126452380D02*
X176845238Y-126452380D01*
X176892857Y-126928571D01*
X176845238Y-126880952D01*
X176750000Y-126833333D01*
X176511904Y-126833333D01*
X176416666Y-126880952D01*
X176369047Y-126928571D01*
X176321428Y-127023809D01*
X176321428Y-127261904D01*
X176369047Y-127357142D01*
X176416666Y-127404761D01*
X176511904Y-127452380D01*
X176750000Y-127452380D01*
X176845238Y-127404761D01*
X176892857Y-127357142D01*
X175892857Y-127452380D02*
X175892857Y-126785714D01*
X175892857Y-126880952D02*
X175845238Y-126833333D01*
X175750000Y-126785714D01*
X175607142Y-126785714D01*
X175511904Y-126833333D01*
X175464285Y-126928571D01*
X175464285Y-127452380D01*
X175464285Y-126928571D02*
X175416666Y-126833333D01*
X175321428Y-126785714D01*
X175178571Y-126785714D01*
X175083333Y-126833333D01*
X175035714Y-126928571D01*
X175035714Y-127452380D01*
X174559523Y-127452380D02*
X174559523Y-126785714D01*
X174559523Y-126880952D02*
X174511904Y-126833333D01*
X174416666Y-126785714D01*
X174273809Y-126785714D01*
X174178571Y-126833333D01*
X174130952Y-126928571D01*
X174130952Y-127452380D01*
X174130952Y-126928571D02*
X174083333Y-126833333D01*
X173988095Y-126785714D01*
X173845238Y-126785714D01*
X173750000Y-126833333D01*
X173702380Y-126928571D01*
X173702380Y-127452380D01*
%LPC*%
D11*
X174169888Y-95375000D03*
D12*
X171669888Y-95375000D03*
D11*
X166419888Y-102205000D03*
D12*
X163919888Y-102205000D03*
D11*
X130445000Y-113125000D03*
D13*
X140605000Y-113125000D03*
D14*
X102575000Y-95325000D03*
D15*
X102575000Y-97865000D03*
X102575000Y-100405000D03*
X102575000Y-102945000D03*
D11*
X114545000Y-103375000D03*
D13*
X124705000Y-103375000D03*
D11*
X174169888Y-118125000D03*
D12*
X171669888Y-118125000D03*
D16*
X163855000Y-111315000D03*
D17*
X165125000Y-111315000D03*
X166395000Y-111315000D03*
D11*
X130445000Y-117875000D03*
D13*
X140605000Y-117875000D03*
D11*
X114695000Y-83545000D03*
D13*
X124855000Y-83545000D03*
D14*
X108875000Y-95325000D03*
D15*
X108875000Y-97865000D03*
X108875000Y-100405000D03*
X108875000Y-102945000D03*
D12*
X145569888Y-87125000D03*
D11*
X148069888Y-87125000D03*
D12*
X171669888Y-102875000D03*
D11*
X174169888Y-102875000D03*
X130445000Y-93875000D03*
D13*
X140605000Y-93875000D03*
D14*
X108875000Y-109325000D03*
D15*
X108875000Y-111865000D03*
X108875000Y-114405000D03*
X108875000Y-116945000D03*
D12*
X145569888Y-102875000D03*
D11*
X148069888Y-102875000D03*
X130445000Y-103375000D03*
D13*
X140605000Y-103375000D03*
D18*
X197000000Y-127000000D03*
D11*
X130445000Y-108375000D03*
D13*
X140605000Y-108375000D03*
D18*
X102000000Y-72000000D03*
D11*
X130445000Y-78795000D03*
D13*
X140605000Y-78795000D03*
D11*
X114545000Y-93875000D03*
D13*
X124705000Y-93875000D03*
D11*
X114545000Y-113125000D03*
D13*
X124705000Y-113125000D03*
D11*
X174169888Y-79125000D03*
D12*
X171669888Y-79125000D03*
D16*
X163855000Y-80235000D03*
D17*
X165125000Y-80235000D03*
X166395000Y-80235000D03*
D11*
X174169888Y-110875000D03*
D12*
X171669888Y-110875000D03*
D11*
X166419888Y-117955000D03*
D12*
X163919888Y-117955000D03*
D11*
X166419888Y-87375000D03*
D12*
X163919888Y-87375000D03*
D14*
X108875000Y-80325000D03*
D15*
X108875000Y-82865000D03*
X108875000Y-85405000D03*
X108875000Y-87945000D03*
D18*
X102000000Y-127000000D03*
D12*
X145569888Y-79375000D03*
D11*
X148069888Y-79375000D03*
D12*
X145569888Y-110375000D03*
D11*
X148069888Y-110375000D03*
D12*
X171669888Y-87045000D03*
D11*
X174169888Y-87045000D03*
D18*
X197000000Y-72000000D03*
D16*
X163855000Y-95565000D03*
D17*
X165125000Y-95565000D03*
X166395000Y-95565000D03*
D14*
X102575000Y-80325000D03*
D15*
X102575000Y-82865000D03*
X102575000Y-85405000D03*
X102575000Y-87945000D03*
D12*
X181390000Y-80875000D03*
D13*
X181390000Y-83415000D03*
X181390000Y-85955000D03*
X181390000Y-88495000D03*
X181390000Y-91035000D03*
X181390000Y-93575000D03*
X181390000Y-96115000D03*
X181390000Y-98655000D03*
X181390000Y-101195000D03*
X181390000Y-103735000D03*
X181390000Y-106275000D03*
X181390000Y-108815000D03*
X181390000Y-111355000D03*
X181390000Y-113895000D03*
X181390000Y-116435000D03*
X196630000Y-116435000D03*
X196630000Y-113895000D03*
X196630000Y-111355000D03*
X196630000Y-108815000D03*
X196630000Y-106275000D03*
X196630000Y-103735000D03*
X196630000Y-101195000D03*
X196630000Y-98655000D03*
X196630000Y-96115000D03*
X196630000Y-93575000D03*
X196630000Y-91035000D03*
X196630000Y-88495000D03*
X196630000Y-85955000D03*
X196630000Y-83415000D03*
X196630000Y-80875000D03*
D11*
X130445000Y-83545000D03*
D13*
X140605000Y-83545000D03*
D11*
X114695000Y-78795000D03*
D13*
X124855000Y-78795000D03*
D12*
X145569888Y-95375000D03*
D11*
X148069888Y-95375000D03*
X114545000Y-108375000D03*
D13*
X124705000Y-108375000D03*
D11*
X130445000Y-98625000D03*
D13*
X140605000Y-98625000D03*
D12*
X145569888Y-117875000D03*
D11*
X148069888Y-117875000D03*
X130445000Y-88295000D03*
D13*
X140605000Y-88295000D03*
D11*
X114695000Y-88295000D03*
D13*
X124855000Y-88295000D03*
D11*
X114545000Y-98625000D03*
D13*
X124705000Y-98625000D03*
D14*
X102575000Y-109325000D03*
D15*
X102575000Y-111865000D03*
X102575000Y-114405000D03*
X102575000Y-116945000D03*
D11*
X114545000Y-117875000D03*
D13*
X124705000Y-117875000D03*
M02*
