%TF.GenerationSoftware,KiCad,Pcbnew,6.0.1-79c1e3a40b~116~ubuntu21.04.1*%
%TF.CreationDate,2022-04-23T17:06:40-04:00*%
%TF.ProjectId,wing_tester,77696e67-5f74-4657-9374-65722e6b6963,rev?*%
%TF.SameCoordinates,Original*%
%TF.FileFunction,Paste,Top*%
%TF.FilePolarity,Positive*%
%FSLAX46Y46*%
G04 Gerber Fmt 4.6, Leading zero omitted, Abs format (unit mm)*
G04 Created by KiCad (PCBNEW 6.0.1-79c1e3a40b~116~ubuntu21.04.1) date 2022-04-23 17:06:40*
%MOMM*%
%LPD*%
G01*
G04 APERTURE LIST*
G04 Aperture macros list*
%AMRoundRect*
0 Rectangle with rounded corners*
0 $1 Rounding radius*
0 $2 $3 $4 $5 $6 $7 $8 $9 X,Y pos of 4 corners*
0 Add a 4 corners polygon primitive as box body*
4,1,4,$2,$3,$4,$5,$6,$7,$8,$9,$2,$3,0*
0 Add four circle primitives for the rounded corners*
1,1,$1+$1,$2,$3*
1,1,$1+$1,$4,$5*
1,1,$1+$1,$6,$7*
1,1,$1+$1,$8,$9*
0 Add four rect primitives between the rounded corners*
20,1,$1+$1,$2,$3,$4,$5,0*
20,1,$1+$1,$4,$5,$6,$7,0*
20,1,$1+$1,$6,$7,$8,$9,0*
20,1,$1+$1,$8,$9,$2,$3,0*%
G04 Aperture macros list end*
%ADD10RoundRect,0.150000X-0.850000X-0.150000X0.850000X-0.150000X0.850000X0.150000X-0.850000X0.150000X0*%
G04 APERTURE END LIST*
D10*
X153125000Y-78600000D03*
X153125000Y-79870000D03*
X153125000Y-81140000D03*
X153125000Y-82410000D03*
X153125000Y-83680000D03*
X153125000Y-84950000D03*
X153125000Y-86220000D03*
X153125000Y-87490000D03*
X158125000Y-87490000D03*
X158125000Y-86220000D03*
X158125000Y-84950000D03*
X158125000Y-83680000D03*
X158125000Y-82410000D03*
X158125000Y-81140000D03*
X158125000Y-79870000D03*
X158125000Y-78600000D03*
X153125000Y-109680000D03*
X153125000Y-110950000D03*
X153125000Y-112220000D03*
X153125000Y-113490000D03*
X153125000Y-114760000D03*
X153125000Y-116030000D03*
X153125000Y-117300000D03*
X153125000Y-118570000D03*
X158125000Y-118570000D03*
X158125000Y-117300000D03*
X158125000Y-116030000D03*
X158125000Y-114760000D03*
X158125000Y-113490000D03*
X158125000Y-112220000D03*
X158125000Y-110950000D03*
X158125000Y-109680000D03*
X153125000Y-94680000D03*
X153125000Y-95950000D03*
X153125000Y-97220000D03*
X153125000Y-98490000D03*
X153125000Y-99760000D03*
X153125000Y-101030000D03*
X153125000Y-102300000D03*
X153125000Y-103570000D03*
X158125000Y-103570000D03*
X158125000Y-102300000D03*
X158125000Y-101030000D03*
X158125000Y-99760000D03*
X158125000Y-98490000D03*
X158125000Y-97220000D03*
X158125000Y-95950000D03*
X158125000Y-94680000D03*
M02*
